<?xml version="1.0" encoding="UTF-8"?>
<svg xmlns="http://www.w3.org/2000/svg" width="800" height="400" viewBox="0 0 800 400">
  <g class="Atlantic_Coast">
    <path d=" M 438.3901 316.3072 L 438.377 320.3139 L 440.6734 326.2618 L 438.3355 327.9015 L 437.813 327.9697 L 435.8711 328.5842 L 435.9744 328.9147 L 435.9861 328.9208 L 435.9981 328.9263 L 436.0103 328.9311 L 436.0228 328.9353 L 436.0355 328.9389 L 436.0483 328.9417 L 436.0613 328.9439 L 436.0743 328.9454 L 436.0874 328.9463 L 436.1005 328.9464 L 444.9631 326.4136 L 455.2669 324.338 L 463.8671 325.7767 L 472.0056 330.1335 L 473.4708 333.5973 L 475.5926 334.045 L 486.1227 327.6108 L 482.7062 328.625 L 476.7865 320.9664 L 480.6166 317.5989 L 480.7029 315.5505 L 483.9085 313.0094 L 488.4007 306.5599 L 490.5143 301.1084 L 491.2914 294.2425 L 497.652 299.4696 L 501.0775 305.7995 L 503.6851 306.7822 L 506.9153 305.3292 L 512.7673 306.7831 L 509.5335 318.5807 L 510.804 322.2016 L 515.6362 320.3035 L 518.4576 315.9632 L 523.4163 314.9562 L 522.5024 304.273 L 524.8163 296.2516 L 524.4398 294.6892 L 527.538 290.2711 L 526.8336 288.9576 L 531.9863 283.863 L 532.9925 281.4155 L 538.2485 277.2651 L 545.8842 268.012 L 545.8735 264.6698 L 547.8528 260.2565 L 552.1226 255.9302 L 558.4028 254.4971 L 562.0901 245.6176 L 567.547 239.8974 L 574.8086 238.0136 L 577.1357 233.5395 L 572.9981 232.2516 L 573.7674 227.1869 L 578.1757 226.8784 L 581.65 222.0898 L 579.4545 216.7938 L 578.7589 212.0686 L 574.9261 204.3124 L 573.4864 202.4948 L 567.9602 199.0002 L 569.4415 195.4462 L 567.8056 193.4877 L 567.9007 188.3539 L 564.2837 189.4059 L 554.7211 185.0757 L 550.9192 184.4019 L 546.9801 181.3179 L 545.7001 177.7504 L 542.8114 177.9914 L 539.284 187.2639 L 535.1296 195.3144 L 530.5754 193.0429 L 530.3022 189.2379 L 524.996 188.2242 L 524.9776 188.1467 L 522.4696 195.4166 L 520.872 197.5493 L 519.6079 202.7623 L 517.8236 204.2561 L 519.3804 210.5577 L 523.4681 211.5953 L 519.6335 217.2304 L 517.5276 217.2857 L 514.3958 221.6232 L 512.2818 221.7652 L 504.5582 227.8147 L 503.4907 231.7567 L 500.1868 235.4608 L 499.4338 242.5065 L 495.9112 245.717 L 491.7747 244.8887 L 487.9488 249.3094 L 480.6386 254.2159 L 481.1056 259.9829 L 478.6787 263.3294 L 471.9899 267.2601 L 470.0457 272.9221 L 466.9579 276.089 L 466.3341 284.1138 L 467.6133 291.9814 L 462.9847 296.8722 L 452.3458 299.2607 L 449.7289 302.9039 L 446.3255 304.1808 L 445.0956 308.3452 L 438.7536 315.7675 L 438.3901 316.3072 L  Z  M 569.4872 182.9652 L 574.31 187.3031 L 572.3379 191.982 L 573.0356 198.9616 L 574.4734 190.2846 L 578.2467 179.5219 L 575.0191 175.7772 L 575.0129 173.3957 L 571.5536 170.6667 L 570.0071 176.805 L 566.4462 180.0054 L 569.4872 182.9652 L  Z"/>
  </g>
  <g class="California-Nevada">
    <path d=" M 6.4894 161.0208 L 6.9372 165.569 L 10.0938 169.7211 L 8.9047 179.4979 L 11.005 183.8458 L 13.948 184.855 L 14.5603 187.469 L 11.7796 189.7572 L 11.2941 194.775 L 12.9686 197.211 L 16.0954 206.5695 L 18.5504 210.5418 L 18.9236 214.0748 L 21.4691 217.4063 L 19.327 224.6986 L 21.0403 227.5678 L 25.198 228.3542 L 32.0612 231.058 L 35.8757 236.7097 L 39.7907 239.5517 L 43.3566 239.9235 L 45.2291 245.6602 L 47.416 245.3799 L 53.9584 254.0802 L 55.0584 256.8937 L 54.6045 263.7606 L 55.9019 266.9695 L 66.802 268.2473 L 64.953 262.167 L 64.6401 253.8459 L 66.527 251.1429 L 63.2173 244.7012 L 66.5225 243.0743 L 65.611 240.691 L 61.4594 237.9738 L 65.3925 234.6413 L 68.6836 234.7541 L 74.7439 236.643 L 77.5907 235.0506 L 82.4091 235.8681 L 87.0218 229.6496 L 90.1657 227.9971 L 90.323 225.5444 L 94.4076 226.0501 L 96.8794 219.4719 L 98.6897 219.6704 L 98.4684 229.0135 L 102.5928 229.8128 L 103.226 233.7749 L 110.3562 233.4576 L 114.2457 231.7576 L 116.7033 225.7993 L 120.2286 232.876 L 125.1611 233.2425 L 126.095 238.0079 L 131.0899 236.1163 L 131.0048 236.0461 L 130.0017 232.0445 L 134.3643 222.0743 L 137.3365 221.0142 L 137.3468 217.543 L 132.4728 214.7875 L 130.0879 203.9745 L 133.1796 199.8843 L 136.3706 199.57 L 137.7044 190.5748 L 141.1494 185.0144 L 143.6766 184.3549 L 144.6913 178.1785 L 147.4118 174.1352 L 148.0347 168.2944 L 149.7432 165.0868 L 150.7442 159.6854 L 154.2773 158.3503 L 158.5924 152.6594 L 157.5152 147.9653 L 157.3597 141.4193 L 161.5286 139.0118 L 159.6439 136.7232 L 161.8212 127.4062 L 161.6289 127.4918 L 156.1379 128.0793 L 153.6329 123.8117 L 149.2056 125.2533 L 145.5486 129.5585 L 143.8805 126.408 L 139.769 126.7404 L 134.2497 129.4057 L 132.2909 132.419 L 125.8505 134.0529 L 119.2851 133.5355 L 114.6782 136.0068 L 111.4396 136.4946 L 108.9151 132.1664 L 105.1881 135.6281 L 100.9025 132.224 L 99.0914 136.7605 L 95.7096 138.0583 L 94.3791 133.486 L 92.2997 133.279 L 90.8112 129.0069 L 87.3713 128.1179 L 85.625 125.4855 L 85.7286 122.1903 L 83.3843 119.7292 L 83.347 116.2919 L 79.7126 116.212 L 73.0519 121.0375 L 70.5856 121.308 L 70.5631 113.8941 L 65.7064 118.0981 L 62.6411 122.598 L 60.2895 121.3733 L 59.5818 117.3944 L 56.434 117.826 L 53.9271 114.1531 L 53.8824 108.0258 L 50.4434 107.5595 L 50.4412 107.5602 L 50.435 107.5621 L 50.4308 107.5634 L 50.4285 107.564 L 50.4222 107.5657 L 50.418 107.5668 L 50.4157 107.5672 L 50.4093 107.5685 L 50.4051 107.5694 L 50.4027 107.5698 L 50.3962 107.5707 L 50.3921 107.5714 L 50.3896 107.5716 L 50.3831 107.5722 L 50.379 107.5726 L 50.3764 107.5727 L 50.3699 107.573 L 50.3658 107.5732 L 50.3632 107.5732 L 50.3567 107.5731 L 50.3526 107.5731 L 50.35 107.5729 L 50.3434 107.5725 L 50.3394 107.5723 L 50.3368 107.572 L 50.3303 107.5712 L 50.3263 107.5708 L 50.3236 107.5703 L 47.8585 110.7118 L 50.0951 114.2211 L 45.0853 119.3626 L 41.7556 119.8274 L 40.3972 117.0703 L 37.1207 115.8095 L 32.2823 117.0269 L 30.6905 115.8989 L 25.4017 118.7665 L 20.603 126.1672 L 20.3977 128.1382 L 16.5151 129.4397 L 15.2583 137.0215 L 15.7215 143.9032 L 9.6371 148.9143 L 12.3335 154.119 L 13.467 160.0167 L 9.8914 162.0658 L 6.4894 161.0208 L  Z"/>
  </g>
  <g class="Central_High_Plains">
    <path d=" M 180.4748 129.0637 L 179.401 131.4572 L 183.177 135.4557 L 188.7932 136.9862 L 191.695 135.573 L 196.6805 136.5868 L 202.0555 140.307 L 198.9772 142.8895 L 197.2535 146.2869 L 201.8852 157.0839 L 204.9707 161.0352 L 203.8602 163.6846 L 204.538 167.6554 L 209.1406 169.1974 L 213.1757 168.4023 L 215.4739 170.7079 L 214.379 177.0222 L 212.0465 177.544 L 212.4226 181.5217 L 207.6553 185.2187 L 207.1587 189.2985 L 210.2983 193.0891 L 213.1594 194.1209 L 220.2292 192.3563 L 223.5438 189.5491 L 225.3798 191.1006 L 231.7219 189.7907 L 237.5544 186.835 L 242.9979 192.1279 L 247.4788 192.8707 L 247.7801 192.7787 L 258.7479 190.3352 L 262.2946 190.9842 L 268.1095 189.6235 L 279.8972 184.3805 L 287.958 181.4884 L 294.952 180.1468 L 297.4682 182.2202 L 302.0072 182.9865 L 302.6651 185.6889 L 308.7205 189.7403 L 312.07 190.0886 L 317.4599 195.6816 L 319.5552 195.3779 L 319.4421 195.2697 L 318.7981 191.7722 L 313.2316 184.4149 L 308.2365 180.4914 L 301.1873 176.0526 L 295.3478 175.6273 L 293.4484 171.5402 L 301.704 167.5654 L 304.2838 164.5799 L 310.8668 160.7119 L 316.9405 160.495 L 317.892 168.4187 L 319.1118 171.8833 L 329.1756 163.1745 L 325.4404 162.4559 L 325.0098 160.0122 L 320.1129 156.2261 L 315.5113 156.681 L 314.5543 154.1295 L 310.0848 154.2572 L 305.7997 151.0928 L 299.1035 148.2362 L 296.9771 148.3327 L 286.3272 143.5412 L 289.5969 138.1341 L 306.0054 143.9643 L 306.6584 137.9712 L 298.0738 133.6412 L 301.4534 131.6934 L 302.6834 126.7017 L 298.5108 122.4517 L 300.0601 117.3181 L 298.9937 114.5396 L 294.3792 110.6305 L 290.0492 109.2421 L 289.0013 105.9068 L 290.9198 102.4255 L 290.4871 102.5816 L 288.2833 105.0886 L 285.1889 105.9638 L 283.6569 109.255 L 278.7859 110.5744 L 276.1288 109.0175 L 272.5948 109.4163 L 270.7309 111.5195 L 262.8773 112.4827 L 259.3949 115.209 L 259.9591 118.1143 L 257.0189 119.0504 L 248.2829 127.2515 L 248.3053 129.9363 L 239.6864 134.7118 L 237.5111 132.095 L 231.5773 131.7508 L 229.595 132.9743 L 224.3421 130.9213 L 219.2959 126.9405 L 210.4078 124.2636 L 206.6513 125.1522 L 202.3623 128.2857 L 195.3805 130.7269 L 192.377 128.7042 L 188.7708 132.4706 L 186.0938 132.6122 L 180.4748 129.0637 L  Z"/>
  </g>
  <g class="Central_Rockies">
    <path d=" M 131.691 236.6119 L 132.4091 242.4816 L 135.9906 247.5388 L 134.9763 252.2483 L 140.4237 255.257 L 145.5173 255.7995 L 152.1315 260.0572 L 155.986 260.6828 L 156.7517 263.633 L 160.3708 264.6232 L 166.4814 262.9004 L 171.3669 263.8479 L 176.1247 259.5972 L 172.3376 254.1909 L 177.1991 248.569 L 174.3751 245.7854 L 174.1202 243.2349 L 176.7712 240.6881 L 180.9355 240.0554 L 185.555 237.2797 L 188.4516 233.894 L 193.451 232.1035 L 193.6906 225.5304 L 197.7443 221.7697 L 199.2747 218.3008 L 203.0459 224.3732 L 205.8257 223.5905 L 212.152 218.8987 L 212.7894 222.4304 L 215.6101 221.6677 L 215.5643 221.389 L 221.6572 223.0852 L 226.9991 222.0264 L 229.5775 224.5137 L 234.2612 221.5007 L 241.2267 219.5924 L 246.9889 214.9126 L 253.1898 213.438 L 256.2485 206.4893 L 255.9012 203.846 L 252.815 201.3213 L 247.6442 192.8202 L 247.4788 192.8707 L 242.9979 192.1279 L 237.5544 186.835 L 231.7219 189.7907 L 225.3798 191.1006 L 223.5438 189.5491 L 220.2292 192.3563 L 213.1594 194.1209 L 210.2983 193.0891 L 207.1587 189.2985 L 207.6553 185.2187 L 212.4226 181.5217 L 212.0465 177.544 L 214.379 177.0222 L 215.4739 170.7079 L 213.1757 168.4023 L 209.1406 169.1974 L 204.538 167.6554 L 203.8602 163.6846 L 204.9707 161.0352 L 201.8852 157.0839 L 197.2535 146.2869 L 198.9772 142.8895 L 202.0555 140.307 L 196.6805 136.5868 L 191.695 135.573 L 188.7932 136.9862 L 183.177 135.4557 L 179.401 131.4572 L 180.4748 129.0637 L 178.0743 124.0828 L 176.0923 122.4376 L 174.5853 116.7884 L 174.4518 116.5613 L 171.6259 115.1605 L 169.5694 119.7016 L 164.4773 122.2921 L 161.9164 127.3638 L 161.8212 127.4062 L 159.6439 136.7232 L 161.5286 139.0118 L 157.3597 141.4193 L 157.5152 147.9653 L 158.5924 152.6594 L 154.2773 158.3503 L 150.7442 159.6854 L 149.7432 165.0868 L 148.0347 168.2944 L 147.4118 174.1352 L 144.6913 178.1785 L 143.6766 184.3549 L 141.1494 185.0144 L 137.7044 190.5748 L 136.3706 199.57 L 133.1796 199.8843 L 130.0879 203.9745 L 132.4728 214.7875 L 137.3468 217.543 L 137.3365 221.0142 L 134.3643 222.0743 L 130.0017 232.0445 L 131.0048 236.0461 L 131.691 236.6119 L  Z"/>
  </g>
  <g class="Columbia-Snake">
    <path d=" M 50.4434 107.5595 L 53.8824 108.0258 L 53.9271 114.1531 L 56.434 117.826 L 59.5818 117.3944 L 60.2895 121.3733 L 62.6411 122.598 L 65.7064 118.0981 L 70.5631 113.8941 L 70.5856 121.308 L 73.0519 121.0375 L 79.7126 116.212 L 83.347 116.2919 L 83.3843 119.7292 L 85.7286 122.1903 L 85.625 125.4855 L 87.3713 128.1179 L 90.8112 129.0069 L 92.2997 133.279 L 94.3791 133.486 L 95.7096 138.0583 L 99.0914 136.7605 L 100.9025 132.224 L 105.1881 135.6281 L 108.9151 132.1664 L 111.4396 136.4946 L 114.6782 136.0068 L 119.2851 133.5355 L 125.8505 134.0529 L 132.2909 132.419 L 134.2497 129.4057 L 139.769 126.7404 L 143.8805 126.408 L 145.5486 129.5585 L 149.2056 125.2533 L 153.6329 123.8117 L 156.1379 128.0793 L 161.6289 127.4918 L 161.9164 127.3638 L 164.4773 122.2921 L 169.5694 119.7016 L 171.6259 115.1605 L 174.4518 116.5613 L 174.3796 116.4385 L 171.7734 112.9229 L 174.2936 109.4175 L 171.6338 106.0314 L 169.676 100.741 L 167.4175 99.697 L 168.5647 93.8534 L 166.1457 93.6263 L 165.6729 88.7395 L 164.066 85.7065 L 169.2691 78.6742 L 166.2699 73.1381 L 163.2768 74.457 L 158.9883 73.1769 L 158.8502 68.5971 L 154.2358 65.3579 L 154.9685 61.1393 L 152.883 59.7781 L 155.5823 56.5832 L 154.9843 54.1197 L 150.2947 50.3094 L 148.739 47.5995 L 150.4548 40.9217 L 147.7186 30.2401 L 145.8751 29.2788 L 143.4784 22.68 L 134.0553 20.8227 L 103.7412 14.1928 L 75.1366 6.9741 L 75.3984 12.0261 L 71.0058 14.0736 L 70.279 19.9313 L 68.3502 20.4216 L 66.5845 27.063 L 61.9988 30.0091 L 62.891 32.6332 L 59.4952 36.821 L 60.0387 39.5741 L 57.3373 46.7049 L 50.261 49.0202 L 48.9456 51.4195 L 51.3621 58.8732 L 50.7195 63.1318 L 46.1664 71.6146 L 45.433 77.485 L 42.258 80.5359 L 38.6705 86.5396 L 39.6835 89.8867 L 44.776 92.6029 L 45.114 96.4241 L 48.4758 98.4594 L 50.5539 102.2435 L 48.6376 104.2981 L 50.3133 107.5686 L 50.3263 107.5708 L 50.3394 107.5723 L 50.3526 107.5731 L 50.3658 107.5732 L 50.379 107.5726 L 50.3921 107.5714 L 50.4051 107.5694 L 50.418 107.5668 L 50.4308 107.5634 L 50.4434 107.5595 L  Z"/>
  </g>
  <g class="Florida">
    <path d=" M 486.1227 327.6108 L 489.3683 325.1543 L 495.242 327.7024 L 499.0029 332.3798 L 504.9491 337.5726 L 507.8708 337.3739 L 510.7382 341.1649 L 511.3089 346.3699 L 510.0171 352.1384 L 509.9102 356.8817 L 514.4078 361.2855 L 515.8223 366.133 L 518.6679 370.4962 L 523.9841 375.8184 L 527.0069 377.2184 L 529.8454 384.6385 L 535.5989 385.6616 L 539.4701 391.4348 L 541.0088 395.3109 L 549.6453 392.5312 L 551.3676 389.3394 L 551.4984 384.108 L 552.8713 381.7983 L 551.6916 367.1106 L 539.9333 345.2041 L 539.5209 340.9684 L 533.0692 334.0562 L 526.6352 322.4211 L 523.4163 314.9562 L 518.4576 315.9632 L 515.6362 320.3035 L 510.804 322.2016 L 509.5335 318.5807 L 512.7673 306.7831 L 506.9153 305.3292 L 503.6851 306.7822 L 501.0775 305.7995 L 497.652 299.4696 L 491.2914 294.2425 L 490.5143 301.1084 L 488.4007 306.5599 L 483.9085 313.0094 L 480.7029 315.5505 L 480.6166 317.5989 L 476.7865 320.9664 L 482.7062 328.625 L 486.1227 327.6108 L  Z"/>
  </g>
  <g class="Great_Lakes">
    <path d=" M 335.5299 40.382 L 334.9458 46.4611 L 336.7458 50.9947 L 342.8762 52.2873 L 346.1626 51.9266 L 348.3236 55.4208 L 346.5067 59.2907 L 336.1419 63.0488 L 336.9248 65.4816 L 334.6834 68.2373 L 335.7107 78.9311 L 333.7256 80.202 L 335.2395 84.9778 L 333.8471 90.1096 L 336.008 90.2208 L 340.5882 99.498 L 339.9116 103.8702 L 344.072 106.7744 L 349.7606 107.3461 L 357.7323 103.3547 L 359.3315 105.5907 L 355.379 114.8256 L 358.6462 120.3423 L 359.0517 120.3696 L 362.8286 118.5175 L 366.8479 123.5133 L 371.3387 124.9364 L 376.4049 125.2208 L 383.7323 120.0657 L 387.1912 120.5383 L 386.1945 127.014 L 384.1251 132.0458 L 392.9447 132.5453 L 402.3482 129.9616 L 401.7571 127.8742 L 406.5882 123.8994 L 409.7648 118.985 L 415.0945 121.6797 L 418.0453 127.5542 L 418.9396 134.8098 L 421.599 136.7969 L 422.5026 141.8929 L 425.3586 146.7145 L 427.475 153.3647 L 429.7999 154.7671 L 439.1469 147.4692 L 445.9204 153.0119 L 452.9938 153.0486 L 457.4794 148.0573 L 457.597 145.7441 L 461.8435 142.5918 L 461.9324 140.5617 L 465.1444 136.5672 L 463.9533 133.144 L 466.8092 132.6013 L 474.8034 125.0385 L 474.053 122.1206 L 479.3106 117.0608 L 480.5095 122.2159 L 482.4577 122.1645 L 481.044 119.2544 L 478.4793 109.9762 L 474.6318 106.7091 L 470.9844 108.7286 L 467.2413 115.1209 L 464.0272 113.1825 L 467.5649 105.5153 L 469.6599 103.297 L 469.6335 97.5494 L 466.9474 93.2605 L 468.2208 90.9211 L 465.6036 87.9031 L 451.5753 82.7961 L 449.0126 83.5495 L 447.3826 86.8633 L 448.6951 89.0274 L 445.1627 91.7067 L 443.5548 95.8676 L 438.1566 98.4117 L 436.5789 101.5189 L 436.8863 107.0259 L 434.7188 112.3104 L 435.9225 115.5032 L 435.1183 119.01 L 438.9523 126.4752 L 440.1707 132.3932 L 439.2738 139.3863 L 436.8918 145.2626 L 430.9246 149.9898 L 427.2905 149.4222 L 425.8647 146.7876 L 425.8718 146.7715 L 424.74 143.6613 L 424.7301 143.6527 L 422.7932 140.453 L 422.1785 132.0472 L 420.6867 125.9532 L 422.3372 119.0978 L 421.7664 115.9569 L 423.8124 110.8266 L 423.7655 105.3356 L 427.5615 96.2363 L 425.1084 95.3331 L 423.4569 99.5898 L 421.2396 98.8921 L 425.4584 87.8207 L 429.8901 87.0732 L 434.1124 84.8508 L 434.4003 82.9404 L 441.3629 81.4638 L 443.3569 79.2641 L 447.9551 80.144 L 451.71 79.1081 L 458.7081 79.5923 L 458.3931 76.4544 L 455.6119 70.5827 L 452.8448 72.4257 L 447.177 72.4229 L 447.1361 67.9763 L 441.664 69.9783 L 434.4067 71.0019 L 429.6106 75.317 L 425.67 73.8763 L 422.6841 74.818 L 416.6821 69.2214 L 410.0167 68.5127 L 416.0182 60.1834 L 411.5902 60.8881 L 400.1567 70.955 L 395.4703 71.9172 L 388.9552 76.2394 L 381.9107 71.7538 L 374.2269 74.9716 L 371.223 74.1471 L 377.711 68.4034 L 383.759 61.4135 L 392.4112 56.9932 L 393.5696 53.8576 L 390.742 52.1762 L 384.3269 52.7673 L 382.6859 50.5698 L 378.9528 53.2699 L 375.9331 53.8461 L 370.4086 49.3628 L 367.6765 50.1943 L 363.4001 46.8876 L 357.6907 45.496 L 352.3839 47.5776 L 351.7535 45.8774 L 344.6027 44.8839 L 343.166 42.2589 L 341.5152 35.388 L 337.7503 34.7111 L 337.7838 40.37 L 335.5299 40.382 L  Z"/>
  </g>
  <g class="Gulf_Coast">
    <path d=" M 337.8244 353.912 L 344.6025 347.097 L 355.7132 341.5721 L 366.6283 339.6961 L 374.3658 342.3905 L 379.9759 342.9598 L 381.8973 339.6907 L 388.1228 339.5136 L 389.5407 342.2604 L 393.0866 343.0938 L 393.3219 346.8797 L 400.0591 348.5877 L 404.6354 345.1927 L 409.1757 344.732 L 411.7434 342.1682 L 413.4992 344.7299 L 417.4307 345.4878 L 418.9342 347.8269 L 423.6249 347.0034 L 421.9789 343.5583 L 417.0457 342.4659 L 414.4585 340.1176 L 418.7802 336.6966 L 416.7989 330.9063 L 422.0443 327.6438 L 431.6058 326.439 L 438.3355 327.9015 L 440.6734 326.2618 L 438.377 320.3139 L 438.3901 316.3072 L 438.6643 315.9 L 436.0799 314.5587 L 436.7612 310.3163 L 438.6489 307.2934 L 438.9777 303.1429 L 437.1413 300.9703 L 441.2651 287.6301 L 442.4324 281.4691 L 448.3702 275.5469 L 449.4756 271.756 L 451.7791 270.6418 L 454.7664 265.9976 L 450.203 263.5361 L 445.7661 265.1387 L 438.5992 263.2543 L 434.5263 266.5171 L 428.3422 263.1756 L 427.2232 259.5711 L 422.4009 260.0093 L 421.0334 262.1564 L 420.3923 262.5265 L 418.2195 267.4862 L 418.4171 280.377 L 412.5459 284.9589 L 410.5737 292.2528 L 404.7301 296.8802 L 403.1061 300.1624 L 403.4452 307.8003 L 400.3805 313.1501 L 398.4599 313.441 L 394.5733 318.3309 L 386.8897 317.7213 L 388.6406 309.2303 L 386.4143 306.2669 L 382.445 305.4714 L 379.6376 301.3513 L 379.3301 297.9301 L 381.0987 292.854 L 386.4191 287.4493 L 387.6257 281.6488 L 386.543 275.5014 L 382.0001 270.0012 L 381.5201 269.9387 L 373.6503 264.2987 L 371.2003 261.0435 L 365.8926 262.0029 L 361.1189 261.1999 L 354.2348 263.6043 L 346.8725 263.8173 L 339.3139 261.6294 L 339.2745 261.4175 L 331.9158 264.6217 L 330.4905 261.9264 L 326.7484 260.3306 L 321.4327 261.0148 L 318.1874 264.0018 L 323.1789 274.3232 L 320.0006 280.4153 L 316.3697 278.6198 L 311.1678 278.0467 L 302.4237 281.0963 L 296.4509 281.3777 L 293.85 283.0366 L 294.1702 283.3019 L 297.6118 286.3677 L 303.0983 288.7713 L 307.3242 296.835 L 311.594 298.6375 L 315.2671 307.1158 L 317.5783 308.8068 L 326.2083 312.0391 L 328.4205 325.1752 L 330.0477 326.5527 L 329.2303 335.1911 L 330.5547 342.2771 L 335.5406 344.3121 L 334.5949 346.8417 L 337.8244 353.912 L  Z"/>
  </g>
  <g class="Midwest">
    <path d=" M 306.0054 143.9643 L 289.5969 138.1341 L 286.3272 143.5412 L 296.9771 148.3327 L 299.1035 148.2362 L 305.7997 151.0928 L 310.0848 154.2572 L 314.5543 154.1295 L 315.5113 156.681 L 320.1129 156.2261 L 325.0098 160.0122 L 325.4404 162.4559 L 329.1756 163.1745 L 319.1118 171.8833 L 317.892 168.4187 L 316.9405 160.495 L 310.8668 160.7119 L 304.2838 164.5799 L 301.704 167.5654 L 293.4484 171.5402 L 295.3478 175.6273 L 301.1873 176.0526 L 308.2365 180.4914 L 313.2316 184.4149 L 318.7981 191.7722 L 319.4421 195.2697 L 319.5552 195.3779 L 321.8116 198.4396 L 326.7283 199.2208 L 328.3012 198.0855 L 333.3983 199.7838 L 337.8846 198.9361 L 339.5958 200.12 L 343.5645 199.1822 L 346.8788 194.7339 L 346.4212 191.9924 L 348.7651 187.7881 L 356.301 187.4384 L 361.6001 190.5178 L 365.7474 191.2776 L 372.0558 190.3089 L 373.0847 192.1085 L 378.6969 194.9526 L 382.2677 194.0785 L 384.1706 196.8253 L 390.353 199.4131 L 393.8638 199.1525 L 397.4511 195.846 L 401.0911 196.5337 L 401.6126 193.0766 L 405.4857 188.2581 L 410.1922 188.6228 L 413.9947 185.3361 L 413.9997 181.9922 L 415.8968 178.5379 L 420.2213 174.8533 L 419.6468 180.5523 L 421.5763 182.921 L 416.968 186.2406 L 417.2638 188.6632 L 415.1157 192.4598 L 414.549 200.5159 L 416.7608 205.8876 L 420.2365 206.4808 L 426.5776 211.0266 L 432.0609 204.647 L 437.2205 202.6473 L 439.335 204.2294 L 441.6063 201.4798 L 445.2695 200.0105 L 448.1669 195.3537 L 451.777 196.6208 L 455.4027 194.7186 L 458.087 188.1534 L 457.3509 183.781 L 462.0737 186.5331 L 470.147 179.9585 L 469.5838 176.133 L 475.7572 172.8213 L 474.4359 177.0201 L 475.6491 183.6985 L 479.2193 184.2582 L 480.4871 188.8445 L 485.5421 189.4882 L 485.7738 185.9626 L 489.8582 184.4519 L 489.652 178.5491 L 493.0573 180.1184 L 492.8132 185.4287 L 497.3598 186.3843 L 501.5409 188.7106 L 503.2649 186.9414 L 508.3929 188.3566 L 511.287 186.3398 L 517.3585 185.6947 L 517.3537 185.6837 L 514.9712 184.3912 L 512.7761 180.7702 L 512.0781 176.5125 L 513.3991 168.3998 L 513.141 163.31 L 515.5402 162.2381 L 516.444 158.7878 L 515.0676 154.2364 L 517.3669 152.7915 L 516.3799 146.8448 L 510.0063 141.9668 L 507.6035 138.5359 L 505.5475 141.073 L 503.8217 146.6262 L 500.8887 146.133 L 501.1151 150.7575 L 499.5923 152.4888 L 494.7868 150.7412 L 490.6861 153.3761 L 487.5737 152.7889 L 486.7654 146.6022 L 485.1407 147.5613 L 473.4531 143.5033 L 478.3643 133.4868 L 480.1772 128.1203 L 482.731 126.4601 L 482.4577 122.1645 L 480.5095 122.2159 L 479.3106 117.0608 L 474.053 122.1206 L 474.8034 125.0385 L 466.8092 132.6013 L 463.9533 133.144 L 465.1444 136.5672 L 461.9324 140.5617 L 461.8435 142.5918 L 457.597 145.7441 L 457.4794 148.0573 L 452.9938 153.0486 L 445.9204 153.0119 L 439.1469 147.4692 L 429.7999 154.7671 L 427.475 153.3647 L 425.3586 146.7145 L 422.5026 141.8929 L 421.599 136.7969 L 418.9396 134.8098 L 418.0453 127.5542 L 415.0945 121.6797 L 409.7648 118.985 L 406.5882 123.8994 L 401.7571 127.8742 L 402.3482 129.9616 L 392.9447 132.5453 L 384.1251 132.0458 L 386.1945 127.014 L 387.1912 120.5383 L 383.7323 120.0657 L 376.4049 125.2208 L 371.3387 124.9364 L 366.8479 123.5133 L 362.8286 118.5175 L 359.0517 120.3696 L 358.692 120.3454 L 353.1209 127.0866 L 349.9967 128.0217 L 346.5864 126.4511 L 345.901 123.7552 L 340.5802 122.016 L 339.771 118.638 L 335.0829 118.1011 L 330.6341 113.8817 L 327.7963 116.2283 L 332.245 122.2281 L 332.9447 128.2264 L 327.4774 130.5323 L 324.3102 138.1581 L 323.7708 141.9238 L 318.8104 142.4743 L 316.6005 140.2101 L 312.2281 139.9246 L 306.0054 143.9643 L  Z"/>
  </g>
  <g class="Mississippi_Embayment">
    <path d=" M 382.0001 270.0012 L 386.543 275.5014 L 387.6257 281.6488 L 386.4191 287.4493 L 381.0987 292.854 L 379.3301 297.9301 L 379.6376 301.3513 L 382.445 305.4714 L 386.4143 306.2669 L 388.6406 309.2303 L 386.8897 317.7213 L 394.5733 318.3309 L 398.4599 313.441 L 400.3805 313.1501 L 403.4452 307.8003 L 403.1061 300.1624 L 404.7301 296.8802 L 410.5737 292.2528 L 412.5459 284.9589 L 418.4171 280.377 L 418.2195 267.4862 L 420.3923 262.5265 L 420.3228 262.5667 L 418.152 258.7114 L 414.3812 258.4479 L 410.5701 256.5846 L 405.7142 257.945 L 401.909 255.5558 L 402.028 250.4028 L 405.0838 246.2277 L 408.3811 237.9764 L 407.2221 235.9665 L 408.9042 230.8637 L 406.3015 221.51 L 402.957 223.7166 L 399.7081 224.0599 L 397.5016 222.0226 L 399.7227 216.0116 L 397.9953 212.355 L 394.183 214.6516 L 393.6612 219.687 L 394.9993 224.0096 L 400.7221 227.6579 L 401.2329 231.6918 L 393.8375 238.2843 L 391.5543 242.9423 L 387.7056 254.5144 L 379.7978 253.0436 L 376.164 259.2141 L 380.6095 263.8899 L 382.0338 270.0056 L 382.0001 270.0012 L  Z"/>
  </g>
  <g class="Northeast">
    <path d=" M 486.7654 146.6022 L 487.5737 152.7889 L 490.6861 153.3761 L 494.7868 150.7412 L 499.5923 152.4888 L 501.1151 150.7575 L 500.8887 146.133 L 503.8217 146.6262 L 505.5475 141.073 L 507.6035 138.5359 L 510.0063 141.9668 L 516.3799 146.8448 L 517.3669 152.7915 L 515.0676 154.2364 L 516.444 158.7878 L 515.5402 162.2381 L 513.141 163.31 L 513.3991 168.3998 L 512.0781 176.5125 L 512.7761 180.7702 L 514.9712 184.3912 L 517.3537 185.6837 L 517.3589 185.6956 L 521.3085 188.8549 L 524.7694 187.2679 L 524.996 188.2242 L 530.3022 189.2379 L 530.5754 193.0429 L 535.1296 195.3144 L 539.284 187.2639 L 542.8114 177.9914 L 545.7001 177.7504 L 546.9801 181.3179 L 550.9192 184.4019 L 554.7211 185.0757 L 564.2837 189.4059 L 567.9007 188.3539 L 564.8968 181.5842 L 569.28 184.1231 L 569.4124 183.1553 L 569.4872 182.9652 L 566.4462 180.0054 L 570.0071 176.805 L 571.5536 170.6667 L 575.0129 173.3957 L 575.0191 175.7772 L 578.2467 179.5219 L 574.4734 190.2846 L 573.0356 198.9616 L 573.45 199.7832 L 573.8046 199.7979 L 575.2734 192.5962 L 580.4162 176.6969 L 578.9209 171.9277 L 574.2646 168.3293 L 572.8102 164.5732 L 579.447 166.3614 L 581.53 167.954 L 583.2162 161.9063 L 584.6558 161.559 L 586.6547 156.0235 L 585.9153 154.8259 L 586.3782 145.3873 L 585.0895 142.051 L 593.2691 138.9731 L 602.0881 133.1707 L 604.8081 129.7932 L 602.0893 127.8544 L 599.1323 131.3229 L 590.3181 134.9819 L 587.5543 134.4082 L 594.5695 128.6353 L 600.9577 126.9523 L 610.4919 122.811 L 611.3684 120.446 L 615.3348 119.2743 L 615.8185 117.3286 L 621.3565 115.7834 L 618.7113 111.2547 L 614.8137 106.9654 L 611.7198 107.0816 L 613.2619 100.952 L 611.658 97.5234 L 615.6274 85.8203 L 615.3732 82.1258 L 618.8078 82.7115 L 619.886 79.9576 L 624.2905 77.6336 L 625.8129 75.0552 L 626.6586 69.8842 L 632.8348 70.1865 L 639.4272 61.9175 L 642.5596 60.5048 L 644.4665 57.1205 L 640.9332 52.0997 L 637.2894 51.7788 L 636.6297 48.0488 L 631.8428 46.4501 L 625.779 26.05 L 619.7353 22.991 L 613.7171 27.5468 L 611.3463 24.5478 L 608.9522 24.5433 L 604.2848 38.2174 L 604.8049 42.4888 L 603.6099 44.3584 L 604.8466 51.0243 L 601.6437 57.8574 L 597.5992 63.0818 L 595.2713 67.517 L 567.3262 74.8365 L 560.7055 76.2244 L 555.5991 79.9899 L 546.1593 93.8455 L 549.9019 100.3715 L 542.5757 107.762 L 536.2009 109.4871 L 533.5386 108.359 L 524.8077 109.5056 L 519.4089 112.1623 L 519.5836 115.3594 L 522.6593 119.608 L 515.2317 128.0397 L 507.8062 133.8717 L 496.8765 140.7802 L 493.5124 144.6188 L 490.2258 144.7251 L 486.7654 146.6022 L  Z"/>
  </g>
  <g class="Northern_High_Plains">
    <path d=" M 147.7186 30.2401 L 150.4548 40.9217 L 148.739 47.5995 L 150.2947 50.3094 L 154.9843 54.1197 L 155.5823 56.5832 L 152.883 59.7781 L 154.9685 61.1393 L 154.2358 65.3579 L 158.8502 68.5971 L 158.9883 73.1769 L 163.2768 74.457 L 166.2699 73.1381 L 169.2691 78.6742 L 164.066 85.7065 L 165.6729 88.7395 L 166.1457 93.6263 L 168.5647 93.8534 L 167.4175 99.697 L 169.676 100.741 L 171.6338 106.0314 L 174.2936 109.4175 L 171.7734 112.9229 L 174.3796 116.4385 L 174.5853 116.7884 L 176.0923 122.4376 L 178.0743 124.0828 L 180.4748 129.0637 L 186.0938 132.6122 L 188.7708 132.4706 L 192.377 128.7042 L 195.3805 130.7269 L 202.3623 128.2857 L 206.6513 125.1522 L 210.4078 124.2636 L 219.2959 126.9405 L 224.3421 130.9213 L 229.595 132.9743 L 231.5773 131.7508 L 237.5111 132.095 L 239.6864 134.7118 L 248.3053 129.9363 L 248.2829 127.2515 L 257.0189 119.0504 L 259.9591 118.1143 L 259.3949 115.209 L 262.8773 112.4827 L 270.7309 111.5195 L 272.5948 109.4163 L 276.1288 109.0175 L 278.7859 110.5744 L 283.6569 109.255 L 285.1889 105.9638 L 288.2833 105.0886 L 290.4871 102.5816 L 290.3119 102.6448 L 287.8928 99.317 L 289.5007 92.8125 L 296.4186 88.02 L 297.4415 86.2438 L 294.3774 83.318 L 293.6984 79.4353 L 294.7297 74.2984 L 292.9874 69.3284 L 290.864 66.6475 L 285.9978 63.931 L 284.4322 64.3275 L 280.6361 61.0336 L 280.3622 58.8244 L 276.2658 56.503 L 274.4596 57.0358 L 270.5201 52.9249 L 266.1114 46.6901 L 264.1589 46.2222 L 260.1007 42.056 L 255.5201 41.4214 L 253.0051 43.3351 L 248.7005 39.0693 L 248.8902 37.1169 L 215.9485 33.846 L 195.2057 31.2233 L 174.7352 28.1829 L 153.4713 24.6125 L 150.9911 25.1708 L 147.7186 30.2401 L  Z"/>
  </g>
  <g class="Pacific_Northwest">
    <path d=" M 6.4894 161.0208 L 9.8914 162.0658 L 13.467 160.0167 L 12.3335 154.119 L 9.6371 148.9143 L 15.7215 143.9032 L 15.2583 137.0215 L 16.5151 129.4397 L 20.3977 128.1382 L 20.603 126.1672 L 25.4017 118.7665 L 30.6905 115.8989 L 32.2823 117.0269 L 37.1207 115.8095 L 40.3972 117.0703 L 41.7556 119.8274 L 45.0853 119.3626 L 50.0951 114.2211 L 47.8585 110.7118 L 50.3236 107.5703 L 50.3133 107.5686 L 48.6376 104.2981 L 50.5539 102.2435 L 48.4758 98.4594 L 45.114 96.4241 L 44.776 92.6029 L 39.6835 89.8867 L 38.6705 86.5396 L 42.258 80.5359 L 45.433 77.485 L 46.1664 71.6146 L 50.7195 63.1318 L 51.3621 58.8732 L 48.9456 51.4195 L 50.261 49.0202 L 57.3373 46.7049 L 60.0387 39.5741 L 59.4952 36.821 L 62.891 32.6332 L 61.9988 30.0091 L 66.5845 27.063 L 68.3502 20.4216 L 70.279 19.9313 L 71.0058 14.0736 L 75.3984 12.0261 L 75.1366 6.9741 L 50.5233 0 L 52.5301 3.8301 L 49.6475 4.7327 L 49.7079 9.3368 L 44.8723 10.7841 L 40.7392 8.4841 L 34.4166 3.2681 L 32.1899 12.3991 L 33.5942 15.6586 L 33.4263 22.7951 L 32.2492 32.8744 L 30.9925 37.3633 L 30.9249 42.4771 L 27.3095 53.4609 L 23.7628 60.5035 L 19.0077 73.1973 L 16.3517 78.357 L 9.7741 87.667 L 10.4528 91.1104 L 8.7653 95.6974 L 9.6325 101.4239 L 8.1703 104.7243 L 8.8106 109.7993 L 6.2627 116.2971 L 0.3433 123.9222 L 0 127.0421 L 3.7993 135.2701 L 3.5327 139.3783 L 1.9272 142.3669 L 1.2312 149.3824 L 6.4894 161.0208 L  Z"/>
  </g>
  <g class="Souris-Red-Rainy">
    <path d=" M 248.8902 37.1169 L 248.7005 39.0693 L 253.0051 43.3351 L 255.5201 41.4214 L 260.1007 42.056 L 264.1589 46.2222 L 266.1114 46.6901 L 270.5201 52.9249 L 274.4596 57.0358 L 276.2658 56.503 L 280.3622 58.8244 L 280.6361 61.0336 L 284.4322 64.3275 L 285.9978 63.931 L 290.864 66.6475 L 292.9874 69.3284 L 294.7297 74.2984 L 293.6984 79.4353 L 294.3774 83.318 L 297.4415 86.2438 L 296.4186 88.02 L 289.5007 92.8125 L 287.8928 99.317 L 290.3119 102.6448 L 290.9198 102.4255 L 289.0013 105.9068 L 290.0492 109.2421 L 294.3792 110.6305 L 298.9937 114.5396 L 300.0601 117.3181 L 298.5108 122.4517 L 302.6834 126.7017 L 301.4534 131.6934 L 298.0738 133.6412 L 306.6584 137.9712 L 306.0054 143.9643 L 312.2281 139.9246 L 316.6005 140.2101 L 318.8104 142.4743 L 323.7708 141.9238 L 324.3102 138.1581 L 327.4774 130.5323 L 332.9447 128.2264 L 332.245 122.2281 L 327.7963 116.2283 L 330.6341 113.8817 L 335.0829 118.1011 L 339.771 118.638 L 340.5802 122.016 L 345.901 123.7552 L 346.5864 126.4511 L 349.9967 128.0217 L 353.1209 127.0866 L 358.692 120.3454 L 358.6462 120.3423 L 355.379 114.8256 L 359.3315 105.5907 L 357.7323 103.3547 L 349.7606 107.3461 L 344.072 106.7744 L 339.9116 103.8702 L 340.5882 99.498 L 336.008 90.2208 L 333.8471 90.1096 L 335.2395 84.9778 L 333.7256 80.202 L 335.7107 78.9311 L 334.6834 68.2373 L 336.9248 65.4816 L 336.1419 63.0488 L 346.5067 59.2907 L 348.3236 55.4208 L 346.1626 51.9266 L 342.8762 52.2873 L 336.7458 50.9947 L 334.9458 46.4611 L 335.5299 40.382 L 311.7909 40.275 L 280.622 39.2163 L 248.8902 37.1169 L  Z"/>
  </g>
  <g class="Southern_High_Plains">
    <path d=" M 230.4094 274.8696 L 237.0014 276.4984 L 241.9009 276.6232 L 248.5003 281.8726 L 250.6902 282.216 L 253.3354 287.7134 L 257.6054 288.1379 L 264.3268 290.0931 L 267.0913 293.1362 L 271.0465 290.5711 L 272.5367 291.4895 L 277.0468 289.3916 L 278.5106 284.3152 L 272.9787 281.0736 L 277.7916 279.7232 L 288.0294 279.763 L 293.9148 283.0903 L 293.85 283.0366 L 296.4509 281.3777 L 302.4237 281.0963 L 311.1678 278.0467 L 316.3697 278.6198 L 320.0006 280.4153 L 323.1789 274.3232 L 318.1874 264.0018 L 321.4327 261.0148 L 326.7484 260.3306 L 330.4905 261.9264 L 331.9158 264.6217 L 339.2745 261.4175 L 339.2095 261.0674 L 337.0218 261.04 L 337.0766 256.1352 L 340.7129 254.6626 L 331.3283 249.0422 L 327.5637 245.7892 L 322.7916 244.346 L 327.6945 239.346 L 333.7063 242.7692 L 334.8205 244.7474 L 341.0338 244.4905 L 344.3453 239.4094 L 354.4628 236.0935 L 355.1237 228.8965 L 357.3772 226.1009 L 352.4758 219.7522 L 350.3255 218.5398 L 346.5738 220.0404 L 341.2656 217.1505 L 338.4354 211.9562 L 332.8417 206.746 L 329.95 205.6466 L 326.6305 201.3462 L 326.7283 199.2208 L 321.8116 198.4396 L 319.5552 195.3779 L 317.4599 195.6816 L 312.07 190.0886 L 308.7205 189.7403 L 302.6651 185.6889 L 302.0072 182.9865 L 297.4682 182.2202 L 294.952 180.1468 L 287.958 181.4884 L 279.8972 184.3805 L 268.1095 189.6235 L 262.2946 190.9842 L 258.7479 190.3352 L 247.7801 192.7787 L 247.6442 192.8202 L 252.815 201.3213 L 255.9012 203.846 L 256.2485 206.4893 L 253.1898 213.438 L 246.9889 214.9126 L 241.2267 219.5924 L 234.2612 221.5007 L 229.5775 224.5137 L 226.9991 222.0264 L 221.6572 223.0852 L 215.5643 221.389 L 215.662 221.9838 L 213.4157 226.6242 L 213.2173 232.865 L 210.1724 240.2606 L 215.2845 242.1151 L 218.4527 250.0413 L 220.59 250.7301 L 222.6605 255.071 L 226.1783 255.22 L 232.5999 259.9597 L 228.8101 265.0555 L 229.2306 271.9557 L 230.4094 274.8696 L  Z"/>
  </g>
  <g class="Southwest_Desert">
    <path d=" M 215.662 221.9838 L 215.6101 221.6677 L 212.7894 222.4304 L 212.152 218.8987 L 205.8257 223.5905 L 203.0459 224.3732 L 199.2747 218.3008 L 197.7443 221.7697 L 193.6906 225.5304 L 193.451 232.1035 L 188.4516 233.894 L 185.555 237.2797 L 180.9355 240.0554 L 176.7712 240.6881 L 174.1202 243.2349 L 174.3751 245.7854 L 177.1991 248.569 L 172.3376 254.1909 L 176.1247 259.5972 L 171.3669 263.8479 L 166.4814 262.9004 L 160.3708 264.6232 L 156.7517 263.633 L 155.986 260.6828 L 152.1315 260.0572 L 145.5173 255.7995 L 140.4237 255.257 L 134.9763 252.2483 L 135.9906 247.5388 L 132.4091 242.4816 L 131.691 236.6119 L 131.0899 236.1163 L 126.095 238.0079 L 125.1611 233.2425 L 120.2286 232.876 L 116.7033 225.7993 L 114.2457 231.7576 L 110.3562 233.4576 L 103.226 233.7749 L 102.5928 229.8128 L 98.4684 229.0135 L 98.6897 219.6704 L 96.8794 219.4719 L 94.4076 226.0501 L 90.323 225.5444 L 90.1657 227.9971 L 87.0218 229.6496 L 82.4091 235.8681 L 77.5907 235.0506 L 74.7439 236.643 L 68.6836 234.7541 L 65.3925 234.6413 L 61.4594 237.9738 L 65.611 240.691 L 66.5225 243.0743 L 63.2173 244.7012 L 66.527 251.1429 L 64.6401 253.8459 L 64.953 262.167 L 66.802 268.2473 L 86.7585 270.5871 L 85.1894 273.7719 L 107.5893 287.1649 L 130.3723 300.3348 L 168.0059 305.7161 L 169.153 298.8028 L 190.6965 301.3161 L 191.3506 298.4937 L 196.2491 298.5285 L 200.0639 300.6511 L 201.1966 305.0751 L 203.3655 308.4676 L 207.991 310.8483 L 208.2005 315.5111 L 211.5119 317.5127 L 215.1662 326.8572 L 218.6064 327.1493 L 220.3587 322.3668 L 218.1614 317.8999 L 217.6304 313.7625 L 213.6806 303.6399 L 213.9029 300.5998 L 217.2627 300.9582 L 225.9988 299.5942 L 231.7579 292.7883 L 227.0954 285.6445 L 228.0366 280.5355 L 230.0855 278.8402 L 230.4094 274.8696 L 229.2306 271.9557 L 228.8101 265.0555 L 232.5999 259.9597 L 226.1783 255.22 L 222.6605 255.071 L 220.59 250.7301 L 218.4527 250.0413 L 215.2845 242.1151 L 210.1724 240.2606 L 213.2173 232.865 L 213.4157 226.6242 L 215.662 221.9838 L  Z"/>
  </g>
  <g class="Tennessee-Missouri">
    <path d=" M 438.7536 315.7675 L 445.0956 308.3452 L 446.3255 304.1808 L 449.7289 302.9039 L 452.3458 299.2607 L 462.9847 296.8722 L 467.6133 291.9814 L 466.3341 284.1138 L 466.9579 276.089 L 470.0457 272.9221 L 471.9899 267.2601 L 478.6787 263.3294 L 481.1056 259.9829 L 480.6386 254.2159 L 487.9488 249.3094 L 491.7747 244.8887 L 495.9112 245.717 L 499.4338 242.5065 L 500.1868 235.4608 L 503.4907 231.7567 L 504.5582 227.8147 L 512.2818 221.7652 L 514.3958 221.6232 L 517.5276 217.2857 L 519.6335 217.2304 L 523.4681 211.5953 L 519.3804 210.5577 L 517.8236 204.2561 L 519.6079 202.7623 L 520.872 197.5493 L 522.4696 195.4166 L 524.9776 188.1467 L 524.7694 187.2679 L 521.3085 188.8549 L 517.3589 185.6956 L 517.3585 185.6947 L 511.287 186.3398 L 508.3929 188.3566 L 503.2649 186.9414 L 501.5409 188.7106 L 497.3598 186.3843 L 492.8132 185.4287 L 493.0573 180.1184 L 489.652 178.5491 L 489.8582 184.4519 L 485.7738 185.9626 L 485.5421 189.4882 L 480.4871 188.8445 L 479.2193 184.2582 L 475.6491 183.6985 L 474.4359 177.0201 L 475.7572 172.8213 L 469.5838 176.133 L 470.147 179.9585 L 462.0737 186.5331 L 457.3509 183.781 L 458.087 188.1534 L 455.4027 194.7186 L 451.777 196.6208 L 448.1669 195.3537 L 445.2695 200.0105 L 441.6063 201.4798 L 439.335 204.2294 L 437.2205 202.6473 L 432.0609 204.647 L 426.5776 211.0266 L 420.2365 206.4808 L 416.7608 205.8876 L 414.549 200.5159 L 415.1157 192.4598 L 417.2638 188.6632 L 416.968 186.2406 L 421.5763 182.921 L 419.6468 180.5523 L 420.2213 174.8533 L 415.8968 178.5379 L 413.9997 181.9922 L 413.9947 185.3361 L 410.1922 188.6228 L 405.4857 188.2581 L 401.6126 193.0766 L 401.0911 196.5337 L 397.4511 195.846 L 393.8638 199.1525 L 390.353 199.4131 L 384.1706 196.8253 L 382.2677 194.0785 L 378.6969 194.9526 L 373.0847 192.1085 L 372.0558 190.3089 L 365.7474 191.2776 L 361.6001 190.5178 L 356.301 187.4384 L 348.7651 187.7881 L 346.4212 191.9924 L 346.8788 194.7339 L 343.5645 199.1822 L 339.5958 200.12 L 337.8846 198.9361 L 333.3983 199.7838 L 328.3012 198.0855 L 326.7283 199.2208 L 326.6305 201.3462 L 329.95 205.6466 L 332.8417 206.746 L 338.4354 211.9562 L 341.2656 217.1505 L 346.5738 220.0404 L 350.3255 218.5398 L 352.4758 219.7522 L 357.3772 226.1009 L 355.1237 228.8965 L 354.4628 236.0935 L 344.3453 239.4094 L 341.0338 244.4905 L 334.8205 244.7474 L 333.7063 242.7692 L 327.6945 239.346 L 322.7916 244.346 L 327.5637 245.7892 L 331.3283 249.0422 L 340.7129 254.6626 L 337.0766 256.1352 L 337.0218 261.04 L 339.2095 261.0674 L 339.3139 261.6294 L 346.8725 263.8173 L 354.2348 263.6043 L 361.1189 261.1999 L 365.8926 262.0029 L 371.2003 261.0435 L 373.6503 264.2987 L 381.5201 269.9387 L 382.0338 270.0056 L 380.6095 263.8899 L 376.164 259.2141 L 379.7978 253.0436 L 387.7056 254.5144 L 391.5543 242.9423 L 393.8375 238.2843 L 401.2329 231.6918 L 400.7221 227.6579 L 394.9993 224.0096 L 393.6612 219.687 L 394.183 214.6516 L 397.9953 212.355 L 399.7227 216.0116 L 397.5016 222.0226 L 399.7081 224.0599 L 402.957 223.7166 L 406.3015 221.51 L 408.9042 230.8637 L 407.2221 235.9665 L 408.3811 237.9764 L 405.0838 246.2277 L 402.028 250.4028 L 401.909 255.5558 L 405.7142 257.945 L 410.5701 256.5846 L 414.3812 258.4479 L 418.152 258.7114 L 420.3228 262.5667 L 421.0334 262.1564 L 422.4009 260.0093 L 427.2232 259.5711 L 428.3422 263.1756 L 434.5263 266.5171 L 438.5992 263.2543 L 445.7661 265.1387 L 450.203 263.5361 L 454.7664 265.9976 L 451.7791 270.6418 L 449.4756 271.756 L 448.3702 275.5469 L 442.4324 281.4691 L 441.2651 287.6301 L 437.1413 300.9703 L 438.9777 303.1429 L 438.6489 307.2934 L 436.7612 310.3163 L 436.0799 314.5587 L 438.6643 315.9 L 438.7536 315.7675 L  Z"/>
  </g>
  <g class="Texas">
    <path d=" M 230.4094 274.8696 L 230.0855 278.8402 L 228.0366 280.5355 L 227.0954 285.6445 L 231.7579 292.7883 L 225.9988 299.5942 L 217.2627 300.9582 L 213.9029 300.5998 L 213.6806 303.6399 L 217.6304 313.7625 L 218.1614 317.8999 L 220.3587 322.3668 L 218.6064 327.1493 L 215.1662 326.8572 L 211.5119 317.5127 L 208.2005 315.5111 L 207.991 310.8483 L 203.3655 308.4676 L 201.1966 305.0751 L 200.0639 300.6511 L 196.2491 298.5285 L 191.3506 298.4937 L 190.6965 301.3161 L 194.2477 306.4325 L 197.0036 308.2123 L 202.2031 314.9394 L 209.0288 320.448 L 212.307 327.6052 L 212.0387 330.8391 L 213.7723 336.4269 L 218.768 341.4981 L 231.7253 349.0228 L 234.4551 345.9909 L 239.3397 337.7125 L 244.3194 335.9142 L 255.4318 338.0777 L 258.1746 342.2692 L 263.9108 346.7529 L 268.7598 357.1421 L 270.1085 362.0113 L 272.8772 364.1907 L 275.443 369.6301 L 279.2711 372.3232 L 281.0073 381.7393 L 283.2003 384.4463 L 285.3777 391.0179 L 294.4877 394.5639 L 297.6 396.9834 L 305.9669 397.9714 L 307.7092 400 L 313.3188 398.6568 L 311.2366 396.3451 L 309.4399 391.5075 L 308.5455 385.2107 L 309.7965 377.8541 L 312.9846 370.2325 L 315.2703 366.665 L 320.5069 362.5821 L 332.0498 357.3807 L 337.8244 353.912 L 334.5949 346.8417 L 335.5406 344.3121 L 330.5547 342.2771 L 329.2303 335.1911 L 330.0477 326.5527 L 328.4205 325.1752 L 326.2083 312.0391 L 317.5783 308.8068 L 315.2671 307.1158 L 311.594 298.6375 L 307.3242 296.835 L 303.0983 288.7713 L 297.6118 286.3677 L 294.1702 283.3019 L 293.9148 283.0903 L 288.0294 279.763 L 277.7916 279.7232 L 272.9787 281.0736 L 278.5106 284.3152 L 277.0468 289.3916 L 272.5367 291.4895 L 271.0465 290.5711 L 267.0913 293.1362 L 264.3268 290.0931 L 257.6054 288.1379 L 253.3354 287.7134 L 250.6902 282.216 L 248.5003 281.8726 L 241.9009 276.6232 L 237.0014 276.4984 L 230.4094 274.8696 L  Z"/>
  </g>
</svg>
