<?xml version="1.0" encoding="UTF-8"?>
<svg id="Layer_1" xmlns="http://www.w3.org/2000/svg" version="1.1" viewBox="0 0 400 661">
  <!-- Generator: Adobe Illustrator 29.1.0, SVG Export Plug-In . SVG Version: 2.1.0 Build 142)  -->
  <defs>
    <style>
      .st0 {
        fill: var(--wq-biotic);
      }

      .st0, .st1, .st2, .st3, .st4, .st5, .st6, .st7 {
        stroke: #fff;
        stroke-miterlimit: 10;
        stroke-width: .4px;
      }

      .st1 {
        fill: var(--wq-salinity);
      }

      .st2 {
        fill: var(--wq-organics);
      }

      .st3 {
        fill: var(--wq-nutrients);
      }

      .st4 {
        fill: var(--wq-temp);
      }

      .st5 {
        fill: var(--wq-metal);
      }

      .st6 {
        fill: var(--wq-unimpaired);
      }

      .st7 {
        fill: var(--wq-sediment);
      }
    </style>
  </defs>
  <rect id="Dioxins" class="st2" x="178.6" y="379.3" width="28.5" height="38.2"/>
  <rect id="Oil_and_grease" class="st2" x="207.1" y="415.3" width="14.1" height="2.2"/>
  <rect id="Toxic_organics" class="st2" x="207.1" y="379.3" width="14.1" height="36"/>
  <rect id="Unimpaired" class="st6" x="5" y="222.5" width="112.3" height="195"/>
  <rect id="Metals_other_than_Mercury" class="st5" x="266.4" y="337.1" width="43.9" height="45.7"/>
  <rect id="Oxygen_depletion" class="st5" x="221.3" y="337.1" width="45.1" height="45.7"/>
  <rect id="Acidity_and_pH" class="st5" x="310.4" y="337.1" width="29.9" height="45.7"/>
  <rect id="Mercury" class="st5" x="221.3" y="222.5" width="119" height="114.6"/>
  <rect id="Salinity" class="st1" x="381.7" y="382.8" width="13.3" height="34.6"/>
  <rect id="Sediments" class="st7" x="221.3" y="382.8" width="36.1" height="34.6"/>
  <rect id="Turbidity" class="st7" x="257.4" y="382.8" width="32.5" height="34.6"/>
  <rect id="Temperature" class="st4" x="339.1" y="382.8" width="42.7" height="34.6"/>
  <rect id="Nutrients_other_than_Ammonia" class="st3" x="289.9" y="382.8" width="36.3" height="34.6"/>
  <rect id="Ammonia" class="st3" x="326.2" y="382.8" width="12.9" height="34.6"/>
  <rect id="Pesticides" class="st2" x="117.3" y="379.3" width="61.3" height="38.2"/>
  <rect id="PCBs" class="st2" x="117.3" y="222.5" width="103.9" height="156.8"/>
  <rect id="Pathogens" class="st0" x="340.3" y="222.5" width="54.7" height="153.3"/>
  <rect id="Algal_growth" class="st0" x="340.3" y="375.8" width="54.7" height="7.1"/>
  <rect id="Dioxins1" class="st2" x="357.7" y="188.9" width="23.1" height="6"/>
  <rect id="Oil_and_grease1" class="st2" x="392.5" y="188.9" width="2.5" height="6"/>
  <rect id="Toxic_organics1" class="st2" x="380.8" y="188.9" width="11.7" height="6"/>
  <rect id="Unimpaired1" class="st6" x="5" width="156.1" height="195"/>
  <rect id="Metals_other_than_Mercury1" class="st5" x="161.1" width="117" height="128.1"/>
  <rect id="Oxygen_depletion1" class="st5" x="278.1" width="20.1" height="128.1"/>
  <rect id="Acidity_and_pH1" class="st5" x="161.1" y="128" width="74.8" height="15.2"/>
  <rect id="Mercury1" class="st5" x="235.8" y="128" width="62.4" height="15.2"/>
  <rect id="Salinity1" class="st1" x="161.1" y="143.2" width="137.1" height="51.7"/>
  <rect id="Sediments1" class="st7" x="298.2" width="73" height="64.6"/>
  <rect id="Turbidity1" class="st7" x="371.2" width="23.8" height="64.6"/>
  <rect id="Temperature1" class="st4" x="298.2" y="64.6" width="51.4" height="87.4"/>
  <rect id="Nutrients_other_than_Ammonia1" class="st3" x="298.2" y="152" width="58" height="42.9"/>
  <rect id="Ammonia1" class="st3" x="356.2" y="152" width="1.5" height="42.9"/>
  <rect id="Pesticides1" class="st2" x="357.7" y="152" width="28.4" height="36.9"/>
  <rect id="PCBs1" class="st2" x="386.1" y="152" width="8.9" height="36.9"/>
  <rect id="Pathogens1" class="st0" x="349.6" y="64.6" width="45.4" height="76.1"/>
  <rect id="Algal_growth1" class="st0" x="373.3" y="140.7" width="21.7" height="11.4"/>
  <rect id="Biotoxins1" class="st0" x="349.6" y="140.7" width="23.7" height="11.4"/>
  <rect id="Dioxins2" class="st2" x="365.9" y="536.2" width="17.4" height="14"/>
  <rect id="Oil_and_grease2" class="st2" x="383.3" y="545.8" width="11.7" height="4.4"/>
  <rect id="Toxic_Organics" class="st2" x="383.3" y="536.2" width="11.7" height="9.6"/>
  <rect id="Unimpaired2" class="st6" x="5" y="444.9" width="161.6" height="195"/>
  <rect id="Metals_other_than_Mercury2" class="st5" x="221.4" y="583" width="46.9" height="57"/>
  <rect id="Oxygen_depletion2" class="st5" x="166.6" y="583" width="54.8" height="57"/>
  <rect id="Acidity_and_pH2" class="st5" x="268.3" y="622.9" width="46.4" height="17"/>
  <rect id="Mercury2" class="st5" x="268.3" y="583" width="46.4" height="39.9"/>
  <rect id="Salinity2" class="st1" x="314.7" y="624.9" width="80.3" height="15"/>
  <rect id="Sediments2" class="st7" x="314.7" y="444.9" width="43.5" height="54.5"/>
  <rect id="Turbidity2" class="st7" x="358.2" y="444.9" width="36.8" height="54.5"/>
  <rect id="Temperature2" class="st4" x="364.6" y="550.1" width="30.3" height="74.8"/>
  <rect id="Nutrients_other_than_Ammonia2" class="st3" x="314.7" y="550.1" width="50" height="71.4"/>
  <rect id="Ammonia2" class="st3" x="314.7" y="621.6" width="50" height="3.4"/>
  <rect id="Pesticides2" class="st2" x="365.9" y="499.4" width="29.1" height="36.8"/>
  <rect id="PCBs2" class="st2" x="314.7" y="499.4" width="51.2" height="50.7"/>
  <rect id="Pathogens2" class="st0" x="166.6" y="444.9" width="141" height="138"/>
  <rect id="Biotoxins" class="st0" x="307.6" y="444.9" width="7.1" height="88"/>
  <rect id="Algal_growth2" class="st0" x="307.6" y="532.9" width="7.1" height="50.1"/>
  <g>
    <path d="M7,200.4h3.1c3.6,0,5.7,1.9,5.7,5.8s-2.1,5.9-5.6,5.9h-3.2v-11.8ZM10,210.4c2.4,0,3.7-1.3,3.7-4.2s-1.4-4.1-3.7-4.1h-.9v8.4h.9Z"/>
    <path d="M18.1,203.3h1.7l.2,1.6h0c.6-1.2,1.6-1.8,2.5-1.8s.7,0,1,.2l-.4,1.8c-.3,0-.5-.1-.9-.1-.7,0-1.6.5-2.1,1.8v5.4h-2.1v-8.8Z"/>
    <path d="M24.5,200.6c0-.7.5-1.2,1.3-1.2s1.3.5,1.3,1.2-.5,1.2-1.3,1.2-1.3-.5-1.3-1.2ZM24.8,203.3h2.1v8.8h-2.1v-8.8Z"/>
    <path d="M29.5,203.3h1.7l.2,1.2h0c.8-.8,1.7-1.4,2.9-1.4,1.9,0,2.7,1.3,2.7,3.5v5.5h-2.1v-5.3c0-1.5-.4-2-1.4-2s-1.3.4-2,1.1v6.2h-2.1v-8.8Z"/>
    <path d="M39.6,199.4h2v7.9h0l3.3-4.1h2.3l-3,3.6,3.3,5.2h-2.3l-2.3-3.8-1.4,1.6v2.2h-2v-12.7Z"/>
    <path d="M48.7,200.6c0-.7.5-1.2,1.3-1.2s1.3.5,1.3,1.2-.5,1.2-1.3,1.2-1.3-.5-1.3-1.2ZM49,203.3h2.1v8.8h-2.1v-8.8Z"/>
    <path d="M53.7,203.3h1.7l.2,1.2h0c.8-.8,1.7-1.4,2.9-1.4,1.9,0,2.7,1.3,2.7,3.5v5.5h-2.1v-5.3c0-1.5-.4-2-1.4-2s-1.3.4-2,1.1v6.2h-2.1v-8.8Z"/>
    <path d="M63.2,213.7c0-.7.5-1.4,1.3-1.9h0c-.5-.4-.8-.8-.8-1.5s.5-1.3,1-1.6h0c-.6-.5-1.2-1.4-1.2-2.4,0-2,1.6-3.2,3.5-3.2s1,0,1.3.2h3.2v1.5h-1.6c.3.3.5.9.5,1.5,0,2-1.5,3-3.4,3s-.8,0-1.2-.2c-.3.2-.4.5-.4.8s.4.8,1.4.8h1.6c2.1,0,3.2.7,3.2,2.2s-1.8,3.1-4.7,3.1-3.7-.8-3.7-2.3ZM69.6,213.3c0-.7-.5-.9-1.6-.9h-1.2c-.5,0-.9,0-1.2-.1-.5.4-.7.8-.7,1.2,0,.8.9,1.3,2.3,1.3s2.4-.7,2.4-1.4ZM68.5,206.2c0-1.1-.7-1.7-1.5-1.7s-1.5.6-1.5,1.7.7,1.8,1.5,1.8,1.5-.7,1.5-1.8Z"/>
    <path d="M75.8,203.3h2.1l1.1,4.6c.2.9.3,1.7.5,2.5h0c.2-.9.3-1.7.6-2.5l1.2-4.6h1.9l1.2,4.6c.2.9.4,1.7.6,2.5h0c.2-.9.3-1.7.5-2.5l1.1-4.6h1.9l-2.2,8.8h-2.5l-1-4.1c-.2-.8-.3-1.6-.5-2.6h0c-.2.9-.3,1.8-.5,2.6l-1,4.1h-2.4l-2.3-8.8Z"/>
    <path d="M89.5,209.7c0-1.9,1.6-2.9,5.2-3.3,0-1-.4-1.7-1.6-1.7s-1.7.4-2.5.9l-.8-1.4c1-.6,2.2-1.2,3.6-1.2,2.2,0,3.3,1.4,3.3,3.8v5.2h-1.7l-.2-1h0c-.8.7-1.7,1.2-2.7,1.2-1.5,0-2.6-1.1-2.6-2.6ZM94.7,209.8v-2c-2.4.3-3.2.9-3.2,1.8s.5,1.1,1.3,1.1,1.3-.4,1.9-1Z"/>
    <path d="M99.3,209.1v-4.2h-1.3v-1.6h1.4c0,0,.2-2.5.2-2.5h1.7v2.4h2.3v1.6h-2.3v4.2c0,1,.4,1.6,1.3,1.6s.7-.1.9-.2l.4,1.5c-.5.2-1.1.3-1.8.3-2,0-2.8-1.3-2.8-3.2Z"/>
    <path d="M104.6,207.7c0-2.9,2-4.6,4.1-4.6s3.7,1.7,3.7,4.2,0,.8,0,1h-5.6c.2,1.6,1.2,2.5,2.6,2.5s1.4-.2,2.1-.6l.7,1.3c-.8.6-1.9,1-3,1-2.4,0-4.4-1.7-4.4-4.6ZM110.6,206.9c0-1.4-.6-2.2-1.8-2.2s-1.9.8-2.1,2.2h3.9Z"/>
    <path d="M114.3,203.3h1.7l.2,1.6h0c.6-1.2,1.6-1.8,2.5-1.8s.7,0,1,.2l-.4,1.8c-.3,0-.5-.1-.9-.1-.7,0-1.6.5-2.1,1.8v5.4h-2.1v-8.8Z"/>
  </g>
  <g>
    <path d="M7,423.3h7.1v1.8h-5v3.3h4.3v1.8h-4.3v4.9h-2.1v-11.8Z"/>
    <path d="M15.8,423.5c0-.7.5-1.2,1.3-1.2s1.3.5,1.3,1.2-.5,1.2-1.3,1.2-1.3-.5-1.3-1.2ZM16,426.3h2.1v8.8h-2.1v-8.8Z"/>
    <path d="M19.8,434.1l1-1.3c.8.6,1.5,1,2.4,1s1.4-.5,1.4-1.1-1-1.1-1.9-1.4c-1.2-.4-2.5-1.1-2.5-2.6s1.2-2.6,3.2-2.6,2.2.5,2.9,1.1l-1,1.3c-.6-.5-1.2-.8-1.9-.8s-1.3.4-1.3,1,.9,1,1.9,1.3c1.2.4,2.5,1,2.5,2.7s-1.2,2.7-3.4,2.7-2.5-.5-3.3-1.2Z"/>
    <path d="M28.5,422.4h2.1v5c.7-.7,1.5-1.3,2.7-1.3,1.9,0,2.7,1.3,2.7,3.5v5.5h-2.1v-5.3c0-1.5-.4-2-1.4-2s-1.3.4-2,1.1v6.2h-2.1v-12.7Z"/>
    <path d="M41.5,430.7c0-2.9,2.1-4.6,4.4-4.6s1.9.4,2.6,1l-1,1.3c-.5-.4-.9-.6-1.5-.6-1.4,0-2.4,1.2-2.4,3s1,2.9,2.3,2.9,1.3-.3,1.8-.8l.8,1.4c-.8.7-1.9,1.1-2.9,1.1-2.4,0-4.3-1.7-4.3-4.6Z"/>
    <path d="M49.4,430.7c0-2.9,2-4.6,4.2-4.6s4.2,1.7,4.2,4.6-2,4.6-4.2,4.6-4.2-1.7-4.2-4.6ZM55.7,430.7c0-1.8-.8-3-2.1-3s-2.1,1.2-2.1,3,.8,2.9,2.1,2.9,2.1-1.2,2.1-2.9Z"/>
    <path d="M59.9,426.3h1.7l.2,1.2h0c.8-.8,1.7-1.4,2.9-1.4,1.9,0,2.7,1.3,2.7,3.5v5.5h-2.1v-5.3c0-1.5-.4-2-1.4-2s-1.3.4-2,1.1v6.2h-2.1v-8.8Z"/>
    <path d="M69.1,434.1l1-1.3c.8.6,1.5,1,2.4,1s1.4-.5,1.4-1.1-1-1.1-1.9-1.4c-1.2-.4-2.5-1.1-2.5-2.6s1.2-2.6,3.2-2.6,2.2.5,2.9,1.1l-1,1.3c-.6-.5-1.2-.8-1.9-.8s-1.3.4-1.3,1,.9,1,1.9,1.3c1.2.4,2.5,1,2.5,2.7s-1.2,2.7-3.4,2.7-2.5-.5-3.3-1.2Z"/>
    <path d="M77.6,431.8v-5.5h2.1v5.3c0,1.5.4,2,1.4,2s1.3-.4,2-1.2v-6.1h2.1v8.8h-1.7l-.2-1.3h0c-.8.9-1.6,1.5-2.8,1.5-1.9,0-2.7-1.3-2.7-3.5Z"/>
    <path d="M87.7,426.3h1.7l.2,1.2h0c.7-.8,1.6-1.4,2.7-1.4s2,.6,2.4,1.6c.8-.9,1.7-1.6,2.8-1.6,1.9,0,2.7,1.3,2.7,3.5v5.5h-2.1v-5.3c0-1.5-.4-2-1.4-2s-1.2.4-1.9,1.1v6.2h-2.1v-5.3c0-1.5-.4-2-1.4-2s-1.2.4-1.9,1.1v6.2h-2.1v-8.8Z"/>
    <path d="M102.9,426.3h1.7l.2.9h0c.7-.6,1.7-1.2,2.7-1.2,2.2,0,3.5,1.8,3.5,4.5s-1.8,4.8-3.8,4.8-1.6-.4-2.3-1v1.5c0,0,0,2.8,0,2.8h-2.1v-12.3ZM108.8,430.6c0-1.8-.6-2.8-1.9-2.8s-1.2.3-1.9,1v4.1c.6.5,1.3.7,1.8.7,1.2,0,2.1-1,2.1-3Z"/>
    <path d="M113,432.1v-4.2h-1.3v-1.6h1.4c0,0,.2-2.5.2-2.5h1.7v2.4h2.3v1.6h-2.3v4.2c0,1,.4,1.6,1.3,1.6s.7-.1.9-.2l.4,1.5c-.5.2-1.1.3-1.8.3-2,0-2.8-1.3-2.8-3.2Z"/>
    <path d="M118.9,423.5c0-.7.5-1.2,1.3-1.2s1.3.5,1.3,1.2-.5,1.2-1.3,1.2-1.3-.5-1.3-1.2ZM119.2,426.3h2.1v8.8h-2.1v-8.8Z"/>
    <path d="M123.3,430.7c0-2.9,2-4.6,4.2-4.6s4.2,1.7,4.2,4.6-2,4.6-4.2,4.6-4.2-1.7-4.2-4.6ZM129.6,430.7c0-1.8-.8-3-2.1-3s-2.1,1.2-2.1,3,.8,2.9,2.1,2.9,2.1-1.2,2.1-2.9Z"/>
    <path d="M133.8,426.3h1.7l.2,1.2h0c.8-.8,1.7-1.4,2.9-1.4,1.9,0,2.7,1.3,2.7,3.5v5.5h-2.1v-5.3c0-1.5-.4-2-1.4-2s-1.3.4-2,1.1v6.2h-2.1v-8.8Z"/>
  </g>
  <g>
    <path d="M7,646.3h4c2.4,0,4.3.9,4.3,3.5s-1.9,3.7-4.3,3.7h-1.9v4.6h-2.1v-11.8ZM10.8,651.8c1.6,0,2.5-.7,2.5-2s-.9-1.8-2.5-1.8h-1.7v3.8h1.7ZM10.6,652.9l1.5-1.2,3.7,6.4h-2.3l-2.8-5.2Z"/>
    <path d="M16.7,653.7c0-2.9,2-4.6,4.1-4.6s3.7,1.7,3.7,4.2,0,.8,0,1h-5.6c.2,1.6,1.2,2.5,2.6,2.5s1.4-.2,2.1-.6l.7,1.3c-.8.6-1.9,1-3,1-2.4,0-4.4-1.7-4.4-4.6ZM22.6,652.8c0-1.4-.6-2.2-1.8-2.2s-1.9.8-2.1,2.2h3.9Z"/>
    <path d="M25.8,653.7c0-2.9,2.1-4.6,4.4-4.6s1.9.4,2.6,1l-1,1.3c-.5-.4-.9-.6-1.5-.6-1.4,0-2.4,1.2-2.4,3s1,2.9,2.3,2.9,1.3-.3,1.8-.8l.8,1.4c-.8.7-1.9,1.1-2.9,1.1-2.4,0-4.3-1.7-4.3-4.6Z"/>
    <path d="M34.7,649.2h1.7l.2,1.6h0c.6-1.2,1.6-1.8,2.5-1.8s.7,0,1,.2l-.4,1.8c-.3,0-.5-.1-.9-.1-.7,0-1.6.5-2.1,1.8v5.4h-2.1v-8.8Z"/>
    <path d="M40.7,653.7c0-2.9,2-4.6,4.1-4.6s3.7,1.7,3.7,4.2,0,.8,0,1h-5.6c.2,1.6,1.2,2.5,2.6,2.5s1.4-.2,2.1-.6l.7,1.3c-.8.6-1.9,1-3,1-2.4,0-4.4-1.7-4.4-4.6ZM46.6,652.8c0-1.4-.6-2.2-1.8-2.2s-1.9.8-2.1,2.2h3.9Z"/>
    <path d="M49.7,655.7c0-1.9,1.6-2.9,5.2-3.3,0-1-.4-1.7-1.6-1.7s-1.7.4-2.5.9l-.8-1.4c1-.6,2.2-1.2,3.6-1.2,2.2,0,3.3,1.4,3.3,3.8v5.2h-1.7l-.2-1h0c-.8.7-1.7,1.2-2.7,1.2-1.5,0-2.6-1.1-2.6-2.6ZM54.9,655.7v-2c-2.4.3-3.2.9-3.2,1.8s.5,1.1,1.3,1.1,1.3-.4,1.9-1Z"/>
    <path d="M59.5,655.1v-4.2h-1.3v-1.6h1.4c0,0,.2-2.5.2-2.5h1.7v2.4h2.3v1.6h-2.3v4.2c0,1,.4,1.6,1.3,1.6s.7-.1.9-.2l.4,1.5c-.5.2-1.1.3-1.8.3-2,0-2.8-1.3-2.8-3.2Z"/>
    <path d="M65.4,646.5c0-.7.5-1.2,1.3-1.2s1.3.5,1.3,1.2-.5,1.2-1.3,1.2-1.3-.5-1.3-1.2ZM65.7,649.2h2.1v8.8h-2.1v-8.8Z"/>
    <path d="M69.8,653.7c0-2.9,2-4.6,4.2-4.6s4.2,1.7,4.2,4.6-2,4.6-4.2,4.6-4.2-1.7-4.2-4.6ZM76.1,653.7c0-1.8-.8-3-2.1-3s-2.1,1.2-2.1,3,.8,2.9,2.1,2.9,2.1-1.2,2.1-2.9Z"/>
    <path d="M80.3,649.2h1.7l.2,1.2h0c.8-.8,1.7-1.4,2.9-1.4,1.9,0,2.7,1.3,2.7,3.5v5.5h-2.1v-5.3c0-1.5-.4-2-1.4-2s-1.3.4-2,1.1v6.2h-2.1v-8.8Z"/>
  </g>
</svg>