<?xml version="1.0" encoding="UTF-8"?>
<svg id="Layer_1" xmlns="http://www.w3.org/2000/svg" version="1.1" viewBox="0 0 600 418">
  <!-- Generator: Adobe Illustrator 29.1.0, SVG Export Plug-In . SVG Version: 2.1.0 Build 142)  -->
  <defs>
    <style>
      .st0 {
        fill: #85a457;
      }

      .st0, .st1, .st2, .st3, .st4, .st5, .st6, .st7 {
        stroke: #fff;
        stroke-miterlimit: 10;
        stroke-width: .4px;
      }

      .st1 {
        fill: #418692;
      }

      .st2 {
        fill: #822734;
      }

      .st3 {
        fill: #93658f;
      }

      .st4 {
        fill: #ffb0b0;
      }

      .st5 {
        fill: #7a7f80;
      }

      .st6 {
        fill: #6591d3;
      }

      .st7 {
        fill: #d7ccc9;
      }
    </style>
  </defs>
  <rect id="Dioxins" class="st2" x="359.3" y="179" width="38.2" height="28.5"/>
  <rect id="Oil_and_grease" class="st2" x="395.3" y="207.5" width="2.2" height="14.1"/>
  <rect id="Toxic_organics" class="st2" x="359.3" y="207.5" width="36" height="14.1"/>
  <rect id="Unimpaired" class="st6" x="202.5" y="5.4" width="195" height="112.3"/>
  <rect id="Metals_other_than_Mercury" class="st5" x="317.1" y="266.8" width="45.7" height="43.9"/>
  <rect id="Oxygen_depletion" class="st5" x="317.1" y="221.7" width="45.7" height="45.1"/>
  <rect id="Acidity_and_pH" class="st5" x="317.1" y="310.8" width="45.7" height="29.9"/>
  <rect id="Mercury" class="st5" x="202.5" y="221.7" width="114.6" height="119"/>
  <rect id="Salinity" class="st1" x="362.9" y="382.1" width="34.6" height="13.3"/>
  <rect id="Sediments" class="st7" x="362.9" y="221.7" width="34.6" height="36.1"/>
  <rect id="Turbidity" class="st7" x="362.9" y="257.8" width="34.6" height="32.5"/>
  <rect id="Temperature" class="st4" x="362.9" y="339.5" width="34.6" height="42.7"/>
  <rect id="Nutrients_other_than_Ammonia" class="st3" x="362.9" y="290.3" width="34.6" height="36.3"/>
  <rect id="Ammonia" class="st3" x="362.9" y="326.6" width="34.6" height="12.9"/>
  <rect id="Pesticides" class="st2" x="359.3" y="117.7" width="38.2" height="61.3"/>
  <rect id="PCBs" class="st2" x="202.5" y="117.7" width="156.8" height="103.9"/>
  <rect id="Pathogens" class="st0" x="202.5" y="340.7" width="153.3" height="54.7"/>
  <rect id="Algal_growth" class="st0" x="355.8" y="340.7" width="7.1" height="54.7"/>
  <rect id="Dioxins1" class="st2" x="193.6" y="358.1" width="6" height="23.1"/>
  <rect id="Oil_and_grease1" class="st2" x="193.6" y="392.9" width="6" height="2.5"/>
  <rect id="Toxic_organics1" class="st2" x="193.6" y="381.2" width="6" height="11.7"/>
  <rect id="Unimpaired1" class="st6" x="4.7" y="5.4" width="195" height="156.1"/>
  <rect id="Metals_other_than_Mercury1" class="st5" x="4.7" y="161.4" width="128.1" height="117"/>
  <rect id="Oxygen_depletion1" class="st5" x="4.7" y="278.5" width="128.1" height="20.1"/>
  <rect id="Acidity_and_pH1" class="st5" x="132.8" y="161.4" width="15.2" height="74.8"/>
  <rect id="Mercury1" class="st5" x="132.8" y="236.2" width="15.2" height="62.4"/>
  <rect id="Salinity1" class="st1" x="147.9" y="161.4" width="51.7" height="137.1"/>
  <rect id="Sediments1" class="st7" x="4.7" y="298.6" width="64.6" height="73"/>
  <rect id="Turbidity1" class="st7" x="4.7" y="371.6" width="64.6" height="23.8"/>
  <rect id="Temperature1" class="st4" x="69.3" y="298.6" width="87.4" height="51.4"/>
  <rect id="Nutrients_other_than_Ammonia1" class="st3" x="156.7" y="298.6" width="42.9" height="58"/>
  <rect id="Ammonia1" class="st3" x="156.7" y="356.6" width="42.9" height="1.5"/>
  <rect id="Pesticides1" class="st2" x="156.7" y="358.1" width="36.9" height="28.4"/>
  <rect id="PCBs1" class="st2" x="156.7" y="386.5" width="36.9" height="8.9"/>
  <rect id="Pathogens1" class="st0" x="69.3" y="349.9" width="76.1" height="45.4"/>
  <rect id="Algal_growth1" class="st0" x="145.4" y="373.7" width="11.4" height="21.7"/>
  <rect id="Biotoxins" class="st0" x="145.4" y="349.9" width="11.4" height="23.7"/>
  <rect id="Dioxins2" class="st2" x="491.6" y="366.3" width="14" height="17.4"/>
  <rect id="Oil_and_grease2" class="st2" x="501.2" y="383.7" width="4.4" height="11.7"/>
  <rect id="Toxic_Organics" class="st2" x="491.6" y="383.7" width="9.6" height="11.7"/>
  <rect id="Unimpaired2" class="st6" x="400.3" y="5.4" width="195" height="161.6"/>
  <rect id="Metals_other_than_Mercury2" class="st5" x="538.4" y="221.8" width="57" height="46.9"/>
  <rect id="Oxygen_depletion2" class="st5" x="538.4" y="167" width="57" height="54.8"/>
  <rect id="Acidity_and_pH2" class="st5" x="578.3" y="268.7" width="17" height="46.4"/>
  <rect id="Mercury2" class="st5" x="538.4" y="268.7" width="39.9" height="46.4"/>
  <rect id="Salinity2" class="st1" x="580.3" y="315.1" width="15" height="80.3"/>
  <rect id="Sediments2" class="st7" x="400.3" y="315.1" width="54.5" height="43.5"/>
  <rect id="Turbidity2" class="st7" x="400.3" y="358.6" width="54.5" height="36.8"/>
  <rect id="Temperature2" class="st4" x="505.5" y="365" width="74.8" height="30.3"/>
  <rect id="Nutrients_other_than_Ammonia2" class="st3" x="505.5" y="315.1" width="71.4" height="50"/>
  <rect id="Ammonia2" class="st3" x="577" y="315.1" width="3.4" height="50"/>
  <rect id="Pesticides2" class="st2" x="454.8" y="366.3" width="36.8" height="29.1"/>
  <rect id="PCBs2" class="st2" x="454.8" y="315.1" width="50.7" height="51.2"/>
  <rect id="Pathogens2" class="st0" x="400.3" y="167" width="138" height="141"/>
  <rect id="Biotoxins1" class="st0" x="400.3" y="308" width="88" height="7.1"/>
  <rect id="Algal_growth2" class="st0" x="488.3" y="308" width="50.1" height="7.1"/>
  <g>
    <path d="M6.2,399.9h3.1c3.6,0,5.7,1.9,5.7,5.8s-2.1,5.9-5.6,5.9h-3.2v-11.8ZM9.2,410c2.4,0,3.7-1.3,3.7-4.2s-1.4-4.1-3.7-4.1h-.9v8.4h.9Z"/>
    <path d="M17.3,402.9h1.7l.2,1.6h0c.6-1.2,1.6-1.8,2.5-1.8s.7,0,1,.2l-.4,1.8c-.3,0-.5-.1-.9-.1-.7,0-1.6.5-2.1,1.8v5.4h-2.1v-8.8Z"/>
    <path d="M23.7,400.1c0-.7.5-1.2,1.3-1.2s1.3.5,1.3,1.2-.5,1.2-1.3,1.2-1.3-.5-1.3-1.2ZM24,402.9h2.1v8.8h-2.1v-8.8Z"/>
    <path d="M28.7,402.9h1.7l.2,1.2h0c.8-.8,1.7-1.4,2.9-1.4,1.9,0,2.7,1.3,2.7,3.5v5.5h-2.1v-5.3c0-1.5-.4-2-1.4-2s-1.3.4-2,1.1v6.2h-2.1v-8.8Z"/>
    <path d="M38.8,399h2v7.9h0l3.3-4.1h2.3l-3,3.6,3.3,5.2h-2.3l-2.3-3.8-1.4,1.6v2.2h-2v-12.7Z"/>
    <path d="M47.9,400.1c0-.7.5-1.2,1.3-1.2s1.3.5,1.3,1.2-.5,1.2-1.3,1.2-1.3-.5-1.3-1.2ZM48.2,402.9h2.1v8.8h-2.1v-8.8Z"/>
    <path d="M52.9,402.9h1.7l.2,1.2h0c.8-.8,1.7-1.4,2.9-1.4,1.9,0,2.7,1.3,2.7,3.5v5.5h-2.1v-5.3c0-1.5-.4-2-1.4-2s-1.3.4-2,1.1v6.2h-2.1v-8.8Z"/>
    <path d="M62.4,413.3c0-.7.5-1.4,1.3-1.9h0c-.5-.4-.8-.8-.8-1.5s.5-1.3,1-1.6h0c-.6-.5-1.2-1.4-1.2-2.4,0-2,1.6-3.2,3.5-3.2s1,0,1.3.2h3.2v1.5h-1.6c.3.3.5.9.5,1.5,0,2-1.5,3-3.4,3s-.8,0-1.2-.2c-.3.2-.4.5-.4.8s.4.8,1.4.8h1.6c2.1,0,3.2.7,3.2,2.2s-1.8,3.1-4.7,3.1-3.7-.8-3.7-2.3ZM68.8,412.8c0-.7-.5-.9-1.6-.9h-1.2c-.5,0-.9,0-1.2-.1-.5.4-.7.8-.7,1.2,0,.8.9,1.3,2.3,1.3s2.4-.7,2.4-1.4ZM67.7,405.8c0-1.1-.7-1.7-1.5-1.7s-1.5.6-1.5,1.7.7,1.8,1.5,1.8,1.5-.7,1.5-1.8Z"/>
    <path d="M75,402.9h2.1l1.1,4.6c.2.9.3,1.7.5,2.5h0c.2-.9.3-1.7.6-2.5l1.2-4.6h1.9l1.2,4.6c.2.9.4,1.7.6,2.5h0c.2-.9.3-1.7.5-2.5l1.1-4.6h1.9l-2.2,8.8h-2.5l-1-4.1c-.2-.8-.3-1.6-.5-2.6h0c-.2.9-.3,1.8-.5,2.6l-1,4.1h-2.4l-2.3-8.8Z"/>
    <path d="M88.7,409.3c0-1.9,1.6-2.9,5.2-3.3,0-1-.4-1.7-1.6-1.7s-1.7.4-2.5.9l-.8-1.4c1-.6,2.2-1.2,3.6-1.2,2.2,0,3.3,1.4,3.3,3.8v5.2h-1.7l-.2-1h0c-.8.7-1.7,1.2-2.7,1.2-1.5,0-2.6-1.1-2.6-2.6ZM93.9,409.3v-2c-2.4.3-3.2.9-3.2,1.8s.5,1.1,1.3,1.1,1.3-.4,1.9-1Z"/>
    <path d="M98.5,408.7v-4.2h-1.3v-1.6h1.4c0,0,.2-2.5.2-2.5h1.7v2.4h2.3v1.6h-2.3v4.2c0,1,.4,1.6,1.3,1.6s.7-.1.9-.2l.4,1.5c-.5.2-1.1.3-1.8.3-2,0-2.8-1.3-2.8-3.2Z"/>
    <path d="M103.8,407.3c0-2.9,2-4.6,4.1-4.6s3.7,1.7,3.7,4.2,0,.8,0,1h-5.6c.2,1.6,1.2,2.5,2.6,2.5s1.4-.2,2.1-.6l.7,1.3c-.8.6-1.9,1-3,1-2.4,0-4.4-1.7-4.4-4.6ZM109.8,406.5c0-1.4-.6-2.2-1.8-2.2s-1.9.8-2.1,2.2h3.9Z"/>
    <path d="M113.5,402.9h1.7l.2,1.6h0c.6-1.2,1.6-1.8,2.5-1.8s.7,0,1,.2l-.4,1.8c-.3,0-.5-.1-.9-.1-.7,0-1.6.5-2.1,1.8v5.4h-2.1v-8.8Z"/>
  </g>
  <g>
    <path d="M204,399.9h7.1v1.8h-5v3.3h4.3v1.8h-4.3v4.9h-2.1v-11.8Z"/>
    <path d="M212.8,400.1c0-.7.5-1.2,1.3-1.2s1.3.5,1.3,1.2-.5,1.2-1.3,1.2-1.3-.5-1.3-1.2ZM213,402.9h2.1v8.8h-2.1v-8.8Z"/>
    <path d="M216.8,410.7l1-1.3c.8.6,1.5,1,2.4,1s1.4-.5,1.4-1.1-1-1.1-1.9-1.4c-1.2-.4-2.5-1.1-2.5-2.6s1.2-2.6,3.2-2.6,2.2.5,2.9,1.1l-1,1.3c-.6-.5-1.2-.8-1.9-.8s-1.3.4-1.3,1,.9,1,1.9,1.3c1.2.4,2.5,1,2.5,2.7s-1.2,2.7-3.4,2.7-2.5-.5-3.3-1.2Z"/>
    <path d="M225.5,399h2.1v5c.7-.7,1.5-1.3,2.7-1.3,1.9,0,2.7,1.3,2.7,3.5v5.5h-2.1v-5.3c0-1.5-.4-2-1.4-2s-1.3.4-2,1.1v6.2h-2.1v-12.7Z"/>
    <path d="M238.5,407.3c0-2.9,2.1-4.6,4.4-4.6s1.9.4,2.6,1l-1,1.3c-.5-.4-.9-.6-1.5-.6-1.4,0-2.4,1.2-2.4,3s1,2.9,2.3,2.9,1.3-.3,1.8-.8l.8,1.4c-.8.7-1.9,1.1-2.9,1.1-2.4,0-4.3-1.7-4.3-4.6Z"/>
    <path d="M246.4,407.3c0-2.9,2-4.6,4.2-4.6s4.2,1.7,4.2,4.6-2,4.6-4.2,4.6-4.2-1.7-4.2-4.6ZM252.7,407.3c0-1.8-.8-3-2.1-3s-2.1,1.2-2.1,3,.8,2.9,2.1,2.9,2.1-1.2,2.1-2.9Z"/>
    <path d="M256.9,402.9h1.7l.2,1.2h0c.8-.8,1.7-1.4,2.9-1.4,1.9,0,2.7,1.3,2.7,3.5v5.5h-2.1v-5.3c0-1.5-.4-2-1.4-2s-1.3.4-2,1.1v6.2h-2.1v-8.8Z"/>
    <path d="M266.1,410.7l1-1.3c.8.6,1.5,1,2.4,1s1.4-.5,1.4-1.1-1-1.1-1.9-1.4c-1.2-.4-2.5-1.1-2.5-2.6s1.2-2.6,3.2-2.6,2.2.5,2.9,1.1l-1,1.3c-.6-.5-1.2-.8-1.9-.8s-1.3.4-1.3,1,.9,1,1.9,1.3c1.2.4,2.5,1,2.5,2.7s-1.2,2.7-3.4,2.7-2.5-.5-3.3-1.2Z"/>
    <path d="M274.6,408.4v-5.5h2.1v5.3c0,1.5.4,2,1.4,2s1.3-.4,2-1.2v-6.1h2.1v8.8h-1.7l-.2-1.3h0c-.8.9-1.6,1.5-2.8,1.5-1.9,0-2.7-1.3-2.7-3.5Z"/>
    <path d="M284.7,402.9h1.7l.2,1.2h0c.7-.8,1.6-1.4,2.7-1.4s2,.6,2.4,1.6c.8-.9,1.7-1.6,2.8-1.6,1.9,0,2.7,1.3,2.7,3.5v5.5h-2.1v-5.3c0-1.5-.4-2-1.4-2s-1.2.4-1.9,1.1v6.2h-2.1v-5.3c0-1.5-.4-2-1.4-2s-1.2.4-1.9,1.1v6.2h-2.1v-8.8Z"/>
    <path d="M299.9,402.9h1.7l.2.9h0c.7-.6,1.7-1.2,2.7-1.2,2.2,0,3.5,1.8,3.5,4.5s-1.8,4.8-3.8,4.8-1.6-.4-2.3-1v1.5c0,0,0,2.8,0,2.8h-2.1v-12.3ZM305.8,407.2c0-1.8-.6-2.8-1.9-2.8s-1.2.3-1.9,1v4.1c.6.5,1.3.7,1.8.7,1.2,0,2.1-1,2.1-3Z"/>
    <path d="M310,408.7v-4.2h-1.3v-1.6h1.4c0,0,.2-2.5.2-2.5h1.7v2.4h2.3v1.6h-2.3v4.2c0,1,.4,1.6,1.3,1.6s.7-.1.9-.2l.4,1.5c-.5.2-1.1.3-1.8.3-2,0-2.8-1.3-2.8-3.2Z"/>
    <path d="M315.9,400.1c0-.7.5-1.2,1.3-1.2s1.3.5,1.3,1.2-.5,1.2-1.3,1.2-1.3-.5-1.3-1.2ZM316.2,402.9h2.1v8.8h-2.1v-8.8Z"/>
    <path d="M320.3,407.3c0-2.9,2-4.6,4.2-4.6s4.2,1.7,4.2,4.6-2,4.6-4.2,4.6-4.2-1.7-4.2-4.6ZM326.6,407.3c0-1.8-.8-3-2.1-3s-2.1,1.2-2.1,3,.8,2.9,2.1,2.9,2.1-1.2,2.1-2.9Z"/>
    <path d="M330.8,402.9h1.7l.2,1.2h0c.8-.8,1.7-1.4,2.9-1.4,1.9,0,2.7,1.3,2.7,3.5v5.5h-2.1v-5.3c0-1.5-.4-2-1.4-2s-1.3.4-2,1.1v6.2h-2.1v-8.8Z"/>
  </g>
  <g>
    <path d="M401.8,399.9h4c2.4,0,4.3.9,4.3,3.5s-1.9,3.7-4.3,3.7h-1.9v4.6h-2.1v-11.8ZM405.6,405.4c1.6,0,2.5-.7,2.5-2s-.9-1.8-2.5-1.8h-1.7v3.8h1.7ZM405.4,406.6l1.5-1.2,3.7,6.4h-2.3l-2.8-5.2Z"/>
    <path d="M411.5,407.3c0-2.9,2-4.6,4.1-4.6s3.7,1.7,3.7,4.2,0,.8,0,1h-5.6c.2,1.6,1.2,2.5,2.6,2.5s1.4-.2,2.1-.6l.7,1.3c-.8.6-1.9,1-3,1-2.4,0-4.4-1.7-4.4-4.6ZM417.4,406.5c0-1.4-.6-2.2-1.8-2.2s-1.9.8-2.1,2.2h3.9Z"/>
    <path d="M420.6,407.3c0-2.9,2.1-4.6,4.4-4.6s1.9.4,2.6,1l-1,1.3c-.5-.4-.9-.6-1.5-.6-1.4,0-2.4,1.2-2.4,3s1,2.9,2.3,2.9,1.3-.3,1.8-.8l.8,1.4c-.8.7-1.9,1.1-2.9,1.1-2.4,0-4.3-1.7-4.3-4.6Z"/>
    <path d="M429.5,402.9h1.7l.2,1.6h0c.6-1.2,1.6-1.8,2.5-1.8s.7,0,1,.2l-.4,1.8c-.3,0-.5-.1-.9-.1-.7,0-1.6.5-2.1,1.8v5.4h-2.1v-8.8Z"/>
    <path d="M435.5,407.3c0-2.9,2-4.6,4.1-4.6s3.7,1.7,3.7,4.2,0,.8,0,1h-5.6c.2,1.6,1.2,2.5,2.6,2.5s1.4-.2,2.1-.6l.7,1.3c-.8.6-1.9,1-3,1-2.4,0-4.4-1.7-4.4-4.6ZM441.4,406.5c0-1.4-.6-2.2-1.8-2.2s-1.9.8-2.1,2.2h3.9Z"/>
    <path d="M444.5,409.3c0-1.9,1.6-2.9,5.2-3.3,0-1-.4-1.7-1.6-1.7s-1.7.4-2.5.9l-.8-1.4c1-.6,2.2-1.2,3.6-1.2,2.2,0,3.3,1.4,3.3,3.8v5.2h-1.7l-.2-1h0c-.8.7-1.7,1.2-2.7,1.2-1.5,0-2.6-1.1-2.6-2.6ZM449.7,409.3v-2c-2.4.3-3.2.9-3.2,1.8s.5,1.1,1.3,1.1,1.3-.4,1.9-1Z"/>
    <path d="M454.3,408.7v-4.2h-1.3v-1.6h1.4c0,0,.2-2.5.2-2.5h1.7v2.4h2.3v1.6h-2.3v4.2c0,1,.4,1.6,1.3,1.6s.7-.1.9-.2l.4,1.5c-.5.2-1.1.3-1.8.3-2,0-2.8-1.3-2.8-3.2Z"/>
    <path d="M460.2,400.1c0-.7.5-1.2,1.3-1.2s1.3.5,1.3,1.2-.5,1.2-1.3,1.2-1.3-.5-1.3-1.2ZM460.5,402.9h2.1v8.8h-2.1v-8.8Z"/>
    <path d="M464.6,407.3c0-2.9,2-4.6,4.2-4.6s4.2,1.7,4.2,4.6-2,4.6-4.2,4.6-4.2-1.7-4.2-4.6ZM470.9,407.3c0-1.8-.8-3-2.1-3s-2.1,1.2-2.1,3,.8,2.9,2.1,2.9,2.1-1.2,2.1-2.9Z"/>
    <path d="M475.1,402.9h1.7l.2,1.2h0c.8-.8,1.7-1.4,2.9-1.4,1.9,0,2.7,1.3,2.7,3.5v5.5h-2.1v-5.3c0-1.5-.4-2-1.4-2s-1.3.4-2,1.1v6.2h-2.1v-8.8Z"/>
  </g>
</svg>